M48
;Layer_Color=9474304
;FILE_FORMAT=4:4
METRIC,LZ
;TYPE=PLATED
T01F00S00C0.7112
T02F00S00C1.1000
%
T01
X00101Y00039
X0011085Y0009
X00117Y00115
X00144
Y0009
Y00039
X00411Y00114
X00396Y00243
Y00306
X00314Y00341
X0033Y0037
X00322Y0052
X00323Y00541
X00341Y00551
Y00531
X00395Y00472
X00183Y0052
X00184Y0054
X00165Y0053
X00202Y00551
X00144Y0042
X00085Y00439
X00009Y00512
X00019Y00526
X00031Y00545
X00044Y00557
X00058Y00574
X00112Y00593
X00101Y00692
Y0072
X00126
X00135Y00617
X00199Y00628
T02
X00017Y000523
Y000777
X00411Y000787
Y000533
X00101Y00748
X000756
X000502
X000248
X001264
X001518
X001772
X002026
X00228
X002534
X002788
X003042
X003296
X00355
X003804
X004058
X00414Y006884
Y00663
M30
