M48
;Layer_Color=9474304
;FILE_FORMAT=4:4
METRIC,LZ
;TYPE=PLATED
T01F00S00C0.7112
T02F00S00C1.1000
%
T01
X00126Y00149351
X00149Y00179
X00176Y002
X00227Y00214
X00253Y00218
X0027Y00118
X00289Y00105
X0031Y0009
X00047
X00031Y00112
X00065Y00159
X00087Y00169
X001Y00189
X00051Y00255
X002Y00229
X00332Y00285
T02
X00024Y00231802
Y00257202
Y00282602
Y00308002
X000242Y00400002
X000496
X00075
X001004
X001258
X001512
X001766
X00202
X002274
X002528
X002782
X003036
X00329
X003544
X003798
X004052
M30
