G04*
G04 #@! TF.GenerationSoftware,Altium Limited,Altium Designer,25.2.1 (25)*
G04*
G04 Layer_Color=65535*
%FSLAX45Y45*%
%MOMM*%
G71*
G04*
G04 #@! TF.SameCoordinates,CBFBDC55-191E-4970-A60F-4FA5A60A4AEF*
G04*
G04*
G04 #@! TF.FilePolarity,Positive*
G04*
G01*
G75*
%ADD10C,0.25000*%
%ADD11C,0.20000*%
%ADD12C,0.25400*%
D10*
X4152500Y6443000D02*
G03*
X4152500Y6443000I-12500J0D01*
G01*
X182500Y964000D02*
G03*
X182500Y964000I-12500J0D01*
G01*
X4122500Y974000D02*
G03*
X4122500Y974000I-12500J0D01*
G01*
X73500Y7480000D02*
G03*
X73500Y7480000I-12500J0D01*
G01*
D11*
X4274500Y6488000D02*
Y7026000D01*
X4005500Y6488000D02*
X4274500D01*
X4005500D02*
Y7026000D01*
X4274500D01*
X35500Y381000D02*
X304500D01*
Y919000D01*
X35500D02*
X304500D01*
X35500Y381000D02*
Y919000D01*
X3975500Y391000D02*
X4244500D01*
Y929000D01*
X3975500D02*
X4244500D01*
X3975500Y391000D02*
Y929000D01*
X106000Y7345500D02*
X4200000D01*
X106000D02*
Y7614500D01*
X4200000D01*
Y7345500D02*
Y7614500D01*
D12*
X4180784Y1984701D02*
X4206176Y2010093D01*
Y2060876D01*
X4180784Y2086268D01*
X4155392D01*
X4130000Y2060876D01*
Y2010093D01*
X4104609Y1984701D01*
X4079217D01*
X4053825Y2010093D01*
Y2060876D01*
X4079217Y2086268D01*
X4155392Y1933917D02*
X4079217D01*
X4053825Y1908526D01*
X4079217Y1883134D01*
X4053825Y1857742D01*
X4079217Y1832350D01*
X4155392D01*
X4053825Y1781567D02*
Y1730783D01*
Y1756175D01*
X4155392D01*
Y1781567D01*
X4180784Y1629216D02*
X4155392D01*
Y1654608D01*
Y1603824D01*
Y1629216D01*
X4079217D01*
X4053825Y1603824D01*
X4155392Y1426082D02*
Y1502257D01*
X4130000Y1527649D01*
X4079217D01*
X4053825Y1502257D01*
Y1426082D01*
X4206176Y1375298D02*
X4053825D01*
X4130000D01*
X4155392Y1349906D01*
Y1299123D01*
X4130000Y1273731D01*
X4053825D01*
X246175Y1098685D02*
X93824D01*
Y1174860D01*
X119216Y1200252D01*
X170000D01*
X195392Y1174860D01*
Y1098685D01*
X246175Y1276427D02*
Y1327211D01*
X220783Y1352603D01*
X170000D01*
X144608Y1327211D01*
Y1276427D01*
X170000Y1251035D01*
X220783D01*
X246175Y1276427D01*
X144608Y1403386D02*
X220783D01*
X246175Y1428778D01*
X220783Y1454170D01*
X246175Y1479561D01*
X220783Y1504953D01*
X144608D01*
X246175Y1631912D02*
Y1581129D01*
X220783Y1555737D01*
X170000D01*
X144608Y1581129D01*
Y1631912D01*
X170000Y1657304D01*
X195392D01*
Y1555737D01*
X144608Y1708088D02*
X246175D01*
X195392D01*
X170000Y1733479D01*
X144608Y1758871D01*
Y1784263D01*
X93824Y2012789D02*
Y2063572D01*
Y2038181D01*
X246175D01*
Y2012789D01*
Y2063572D01*
Y2139748D02*
X144608D01*
Y2215923D01*
X170000Y2241315D01*
X246175D01*
X3267556Y7291567D02*
Y7139217D01*
X3343732D01*
X3369124Y7164608D01*
Y7266175D01*
X3343732Y7291567D01*
X3267556D01*
X3419907Y7139217D02*
X3470691D01*
X3445299D01*
Y7240784D01*
X3419907D01*
X3546866Y7139217D02*
X3623041D01*
X3648433Y7164608D01*
X3623041Y7190000D01*
X3572258D01*
X3546866Y7215392D01*
X3572258Y7240784D01*
X3648433D01*
X3699217Y7088433D02*
Y7240784D01*
X3775392D01*
X3800784Y7215392D01*
Y7164608D01*
X3775392Y7139217D01*
X3699217D01*
X3851567D02*
X3902351D01*
X3876959D01*
Y7291567D01*
X3851567D01*
X4003918Y7240784D02*
X4054702D01*
X4080093Y7215392D01*
Y7139217D01*
X4003918D01*
X3978526Y7164608D01*
X4003918Y7190000D01*
X4080093D01*
X4130877Y7240784D02*
Y7164608D01*
X4156269Y7139217D01*
X4232444D01*
Y7113825D01*
X4207052Y7088433D01*
X4181660D01*
X4232444Y7139217D02*
Y7240784D01*
X4216175Y6376268D02*
X4063825D01*
Y6300093D01*
X4089217Y6274701D01*
X4114608D01*
X4140000Y6300093D01*
Y6376268D01*
Y6300093D01*
X4165392Y6274701D01*
X4190784D01*
X4216175Y6300093D01*
Y6376268D01*
X4165392Y6223918D02*
X4089217D01*
X4063825Y6198526D01*
Y6122350D01*
X4165392D01*
X4190784Y6046175D02*
X4165392D01*
Y6071567D01*
Y6020783D01*
Y6046175D01*
X4089217D01*
X4063825Y6020783D01*
X4190784Y5919216D02*
X4165392D01*
Y5944608D01*
Y5893825D01*
Y5919216D01*
X4089217D01*
X4063825Y5893825D01*
Y5792257D02*
Y5741474D01*
X4089217Y5716082D01*
X4140000D01*
X4165392Y5741474D01*
Y5792257D01*
X4140000Y5817649D01*
X4089217D01*
X4063825Y5792257D01*
Y5665299D02*
X4165392D01*
Y5589123D01*
X4140000Y5563731D01*
X4063825D01*
M02*
