G04*
G04 #@! TF.GenerationSoftware,Altium Limited,Altium Designer,25.2.1 (25)*
G04*
G04 Layer_Color=128*
%FSLAX45Y45*%
%MOMM*%
G71*
G04*
G04 #@! TF.SameCoordinates,CBFBDC55-191E-4970-A60F-4FA5A60A4AEF*
G04*
G04*
G04 #@! TF.FilePolarity,Positive*
G04*
G01*
G75*
%ADD22R,1.57480X1.57480*%
%ADD23C,1.57480*%
%ADD24O,1.05000X1.45000*%
%ADD25O,1.10000X1.80000*%
G04:AMPARAMS|DCode=26|XSize=1.5mm|YSize=1.5mm|CornerRadius=0.3mm|HoleSize=0mm|Usage=FLASHONLY|Rotation=0.000|XOffset=0mm|YOffset=0mm|HoleType=Round|Shape=RoundedRectangle|*
%AMROUNDEDRECTD26*
21,1,1.50000,0.90000,0,0,0.0*
21,1,0.90000,1.50000,0,0,0.0*
1,1,0.60000,0.45000,-0.45000*
1,1,0.60000,-0.45000,-0.45000*
1,1,0.60000,-0.45000,0.45000*
1,1,0.60000,0.45000,0.45000*
%
%ADD26ROUNDEDRECTD26*%
%ADD28R,2.80000X2.10000*%
%ADD29R,1.90000X0.60000*%
G36*
X1921000Y247000D02*
X1541000D01*
Y27000D01*
X1921000D01*
Y247000D01*
D02*
G37*
G36*
Y501000D02*
X1541000D01*
Y281000D01*
X1921000D01*
Y501000D01*
D02*
G37*
G36*
Y755000D02*
X1541000D01*
Y535000D01*
X1921000D01*
Y755000D01*
D02*
G37*
G36*
Y1009000D02*
X1541000D01*
Y789000D01*
X1921000D01*
Y1009000D01*
D02*
G37*
G36*
Y1263000D02*
X1541000D01*
Y1043000D01*
X1921000D01*
Y1263000D01*
D02*
G37*
G36*
X3859000Y247000D02*
X3479000D01*
Y27000D01*
X3859000D01*
Y247000D01*
D02*
G37*
G36*
Y501000D02*
X3479000D01*
Y281000D01*
X3859000D01*
Y501000D01*
D02*
G37*
G36*
Y755000D02*
X3479000D01*
Y535000D01*
X3859000D01*
Y755000D01*
D02*
G37*
G36*
Y1009000D02*
X3479000D01*
Y789000D01*
X3859000D01*
Y1009000D01*
D02*
G37*
G36*
Y1263000D02*
X3479000D01*
Y1043000D01*
X3859000D01*
Y1263000D01*
D02*
G37*
G36*
X1921000Y1517000D02*
X1541000D01*
Y1297000D01*
X1921000D01*
Y1517000D01*
D02*
G37*
G36*
Y1771000D02*
X1541000D01*
Y1551000D01*
X1921000D01*
Y1771000D01*
D02*
G37*
G36*
Y2025000D02*
X1541000D01*
Y1805000D01*
X1921000D01*
Y2025000D01*
D02*
G37*
G36*
Y2279000D02*
X1541000D01*
Y2059000D01*
X1921000D01*
Y2279000D01*
D02*
G37*
G36*
Y2533000D02*
X1541000D01*
Y2313000D01*
X1921000D01*
Y2533000D01*
D02*
G37*
G36*
X3859000Y1517000D02*
X3479000D01*
Y1297000D01*
X3859000D01*
Y1517000D01*
D02*
G37*
G36*
Y1771000D02*
X3479000D01*
Y1551000D01*
X3859000D01*
Y1771000D01*
D02*
G37*
G36*
Y2025000D02*
X3479000D01*
Y1805000D01*
X3859000D01*
Y2025000D01*
D02*
G37*
G36*
Y2279000D02*
X3479000D01*
Y2059000D01*
X3859000D01*
Y2279000D01*
D02*
G37*
G36*
Y2533000D02*
X3479000D01*
Y2313000D01*
X3859000D01*
Y2533000D01*
D02*
G37*
G36*
X1921000Y2787000D02*
X1541000D01*
Y2567000D01*
X1921000D01*
Y2787000D01*
D02*
G37*
G36*
Y3041000D02*
X1541000D01*
Y2821000D01*
X1921000D01*
Y3041000D01*
D02*
G37*
G36*
Y3295000D02*
X1541000D01*
Y3075000D01*
X1921000D01*
Y3295000D01*
D02*
G37*
G36*
Y3549000D02*
X1541000D01*
Y3329000D01*
X1921000D01*
Y3549000D01*
D02*
G37*
G36*
Y3803000D02*
X1541000D01*
Y3583000D01*
X1921000D01*
Y3803000D01*
D02*
G37*
G36*
X3859000Y2787000D02*
X3479000D01*
Y2567000D01*
X3859000D01*
Y2787000D01*
D02*
G37*
G36*
Y3041000D02*
X3479000D01*
Y2821000D01*
X3859000D01*
Y3041000D01*
D02*
G37*
G36*
Y3295000D02*
X3479000D01*
Y3075000D01*
X3859000D01*
Y3295000D01*
D02*
G37*
G36*
Y3549000D02*
X3479000D01*
Y3329000D01*
X3859000D01*
Y3549000D01*
D02*
G37*
G36*
Y3803000D02*
X3479000D01*
Y3583000D01*
X3859000D01*
Y3803000D01*
D02*
G37*
G36*
X1921000Y4057000D02*
X1541000D01*
Y3837000D01*
X1921000D01*
Y4057000D01*
D02*
G37*
G36*
Y4311000D02*
X1541000D01*
Y4091000D01*
X1921000D01*
Y4311000D01*
D02*
G37*
G36*
Y4565000D02*
X1541000D01*
Y4345000D01*
X1921000D01*
Y4565000D01*
D02*
G37*
G36*
Y4819000D02*
X1541000D01*
Y4599000D01*
X1921000D01*
Y4819000D01*
D02*
G37*
G36*
Y5073000D02*
X1541000D01*
Y4853000D01*
X1921000D01*
Y5073000D01*
D02*
G37*
G36*
X3859000Y4057000D02*
X3479000D01*
Y3837000D01*
X3859000D01*
Y4057000D01*
D02*
G37*
G36*
Y4311000D02*
X3479000D01*
Y4091000D01*
X3859000D01*
Y4311000D01*
D02*
G37*
G36*
Y4565000D02*
X3479000D01*
Y4345000D01*
X3859000D01*
Y4565000D01*
D02*
G37*
G36*
Y4819000D02*
X3479000D01*
Y4599000D01*
X3859000D01*
Y4819000D01*
D02*
G37*
G36*
Y5073000D02*
X3479000D01*
Y4853000D01*
X3859000D01*
Y5073000D01*
D02*
G37*
D22*
X2758410Y3120000D02*
D03*
D23*
X3266410D02*
D03*
X3012410D02*
D03*
D24*
X2942500Y453000D02*
D03*
X2457500D02*
D03*
D25*
X2972500Y150000D02*
D03*
X2427500D02*
D03*
D26*
X2450000Y1450000D02*
D03*
Y1200000D02*
D03*
Y950000D02*
D03*
X2700000Y450000D02*
D03*
X2800000Y120000D02*
D03*
X2600000D02*
D03*
D28*
X615000Y6745000D02*
D03*
Y4215000D02*
D03*
D29*
X850000Y6430000D02*
D03*
Y6330000D02*
D03*
Y6230000D02*
D03*
Y6130000D02*
D03*
Y6030000D02*
D03*
Y5930000D02*
D03*
Y5830000D02*
D03*
Y5730000D02*
D03*
Y5630000D02*
D03*
Y5530000D02*
D03*
Y5430000D02*
D03*
Y5330000D02*
D03*
Y5230000D02*
D03*
Y5130000D02*
D03*
Y5030000D02*
D03*
Y4930000D02*
D03*
Y4830000D02*
D03*
Y4730000D02*
D03*
Y4630000D02*
D03*
Y4530000D02*
D03*
M02*
