G04*
G04 #@! TF.GenerationSoftware,Altium Limited,Altium Designer,25.2.1 (25)*
G04*
G04 Layer_Color=16711935*
%FSLAX45Y45*%
%MOMM*%
G71*
G04*
G04 #@! TF.SameCoordinates,CBFBDC55-191E-4970-A60F-4FA5A60A4AEF*
G04*
G04*
G04 #@! TF.FilePolarity,Negative*
G04*
G01*
G75*
G04:AMPARAMS|DCode=13|XSize=1.8032mm|YSize=1.8032mm|CornerRadius=0.5016mm|HoleSize=0mm|Usage=FLASHONLY|Rotation=90.000|XOffset=0mm|YOffset=0mm|HoleType=Round|Shape=RoundedRectangle|*
%AMROUNDEDRECTD13*
21,1,1.80320,0.80000,0,0,90.0*
21,1,0.80000,1.80320,0,0,90.0*
1,1,1.00320,0.40000,0.40000*
1,1,1.00320,0.40000,-0.40000*
1,1,1.00320,-0.40000,-0.40000*
1,1,1.00320,-0.40000,0.40000*
%
%ADD13ROUNDEDRECTD13*%
%ADD14C,1.80320*%
G04:AMPARAMS|DCode=15|XSize=1.8032mm|YSize=1.8032mm|CornerRadius=0.5016mm|HoleSize=0mm|Usage=FLASHONLY|Rotation=0.000|XOffset=0mm|YOffset=0mm|HoleType=Round|Shape=RoundedRectangle|*
%AMROUNDEDRECTD15*
21,1,1.80320,0.80000,0,0,0.0*
21,1,0.80000,1.80320,0,0,0.0*
1,1,1.00320,0.40000,-0.40000*
1,1,1.00320,-0.40000,-0.40000*
1,1,1.00320,-0.40000,0.40000*
1,1,1.00320,0.40000,0.40000*
%
%ADD15ROUNDEDRECTD15*%
%ADD16C,1.47320*%
%ADD30R,1.77800X1.77800*%
%ADD31C,1.77800*%
%ADD32O,1.25320X1.65320*%
%ADD33O,1.30320X2.00320*%
G04:AMPARAMS|DCode=34|XSize=1.7032mm|YSize=1.7032mm|CornerRadius=0.4016mm|HoleSize=0mm|Usage=FLASHONLY|Rotation=0.000|XOffset=0mm|YOffset=0mm|HoleType=Round|Shape=RoundedRectangle|*
%AMROUNDEDRECTD34*
21,1,1.70320,0.90000,0,0,0.0*
21,1,0.90000,1.70320,0,0,0.0*
1,1,0.80320,0.45000,-0.45000*
1,1,0.80320,-0.45000,-0.45000*
1,1,0.80320,-0.45000,0.45000*
1,1,0.80320,0.45000,0.45000*
%
%ADD34ROUNDEDRECTD34*%
%ADD35R,3.00320X2.30320*%
%ADD36R,2.10320X0.80320*%
G36*
X1815700Y47100D02*
X1820400Y47500D01*
X1825100Y48100D01*
X1829700Y49000D01*
X1834300Y50100D01*
X1838800Y51400D01*
X1843300Y53000D01*
X1847600Y54800D01*
X1851900Y56800D01*
X1856000Y59100D01*
X1860000Y61500D01*
X1863900Y64200D01*
X1867600Y67100D01*
X1871200Y70100D01*
X1874600Y73400D01*
X1877900Y76800D01*
X1880900Y80400D01*
X1883800Y84100D01*
X1886500Y88000D01*
X1888900Y92000D01*
X1891200Y96100D01*
X1893200Y100400D01*
X1895000Y104700D01*
X1896600Y109200D01*
X1897900Y113700D01*
X1899000Y118300D01*
X1899900Y122900D01*
X1900500Y127600D01*
X1900900Y132300D01*
X1901000Y137000D01*
X1900900Y141700D01*
X1900500Y146400D01*
X1899900Y151100D01*
X1899000Y155700D01*
X1897900Y160300D01*
X1896600Y164800D01*
X1895000Y169300D01*
X1893200Y173600D01*
X1891200Y177900D01*
X1888900Y182000D01*
X1886500Y186000D01*
X1883800Y189900D01*
X1880900Y193600D01*
X1877900Y197200D01*
X1874600Y200600D01*
X1871200Y203900D01*
X1867600Y206900D01*
X1863900Y209800D01*
X1860000Y212500D01*
X1856000Y214900D01*
X1851900Y217200D01*
X1847600Y219200D01*
X1843300Y221000D01*
X1838800Y222600D01*
X1834300Y223900D01*
X1829700Y225000D01*
X1825100Y225900D01*
X1820400Y226500D01*
X1815700Y226900D01*
X1811000Y227000D01*
X1561000D01*
Y47000D01*
X1811000D01*
X1815700Y47100D01*
D02*
G37*
G36*
Y301100D02*
X1820400Y301500D01*
X1825100Y302100D01*
X1829700Y303000D01*
X1834300Y304100D01*
X1838800Y305400D01*
X1843300Y307000D01*
X1847600Y308800D01*
X1851900Y310800D01*
X1856000Y313100D01*
X1860000Y315500D01*
X1863900Y318200D01*
X1867600Y321100D01*
X1871200Y324100D01*
X1874600Y327400D01*
X1877900Y330800D01*
X1880900Y334400D01*
X1883800Y338100D01*
X1886500Y342000D01*
X1888900Y346000D01*
X1891200Y350100D01*
X1893200Y354400D01*
X1895000Y358700D01*
X1896600Y363200D01*
X1897900Y367700D01*
X1899000Y372300D01*
X1899900Y376900D01*
X1900500Y381600D01*
X1900900Y386300D01*
X1901000Y391000D01*
X1900900Y395700D01*
X1900500Y400400D01*
X1899900Y405100D01*
X1899000Y409700D01*
X1897900Y414300D01*
X1896600Y418800D01*
X1895000Y423300D01*
X1893200Y427600D01*
X1891200Y431900D01*
X1888900Y436000D01*
X1886500Y440000D01*
X1883800Y443900D01*
X1880900Y447600D01*
X1877900Y451200D01*
X1874600Y454600D01*
X1871200Y457900D01*
X1867600Y460900D01*
X1863900Y463800D01*
X1860000Y466500D01*
X1856000Y468900D01*
X1851900Y471200D01*
X1847600Y473200D01*
X1843300Y475000D01*
X1838800Y476600D01*
X1834300Y477900D01*
X1829700Y479000D01*
X1825100Y479900D01*
X1820400Y480500D01*
X1815700Y480900D01*
X1811000Y481000D01*
X1561000D01*
Y301000D01*
X1811000D01*
X1815700Y301100D01*
D02*
G37*
G36*
X1874100Y555200D02*
X1875700Y555400D01*
X1877200Y555700D01*
X1878800Y556000D01*
X1880300Y556500D01*
X1881800Y557000D01*
X1883200Y557600D01*
X1884600Y558300D01*
X1886000Y559000D01*
X1887300Y559800D01*
X1888600Y560700D01*
X1889900Y561700D01*
X1891100Y562700D01*
X1892200Y563800D01*
X1893300Y564900D01*
X1894300Y566100D01*
X1895300Y567400D01*
X1896200Y568700D01*
X1897000Y570000D01*
X1897700Y571400D01*
X1898400Y572800D01*
X1899000Y574200D01*
X1899500Y575700D01*
X1900000Y577200D01*
X1900300Y578800D01*
X1900600Y580300D01*
X1900800Y581900D01*
X1901000Y583400D01*
Y585000D01*
Y705000D01*
Y706600D01*
X1900800Y708100D01*
X1900600Y709700D01*
X1900300Y711200D01*
X1900000Y712800D01*
X1899500Y714300D01*
X1899000Y715800D01*
X1898400Y717200D01*
X1897700Y718600D01*
X1897000Y720000D01*
X1896200Y721300D01*
X1895300Y722600D01*
X1894300Y723900D01*
X1893300Y725100D01*
X1892200Y726200D01*
X1891100Y727300D01*
X1889900Y728300D01*
X1888600Y729300D01*
X1887300Y730200D01*
X1886000Y731000D01*
X1884600Y731700D01*
X1883200Y732400D01*
X1881800Y733000D01*
X1880300Y733500D01*
X1878800Y734000D01*
X1877200Y734300D01*
X1875700Y734600D01*
X1874100Y734800D01*
X1872600Y735000D01*
X1561000D01*
Y555000D01*
X1872600D01*
X1874100Y555200D01*
D02*
G37*
G36*
X1815700Y809100D02*
X1820400Y809500D01*
X1825100Y810100D01*
X1829700Y811000D01*
X1834300Y812100D01*
X1838800Y813400D01*
X1843300Y815000D01*
X1847600Y816800D01*
X1851900Y818800D01*
X1856000Y821100D01*
X1860000Y823500D01*
X1863900Y826200D01*
X1867600Y829100D01*
X1871200Y832100D01*
X1874600Y835400D01*
X1877900Y838800D01*
X1880900Y842400D01*
X1883800Y846100D01*
X1886500Y850000D01*
X1888900Y854000D01*
X1891200Y858100D01*
X1893200Y862400D01*
X1895000Y866700D01*
X1896600Y871200D01*
X1897900Y875700D01*
X1899000Y880300D01*
X1899900Y884900D01*
X1900500Y889600D01*
X1900900Y894300D01*
X1901000Y899000D01*
X1900900Y903700D01*
X1900500Y908400D01*
X1899900Y913100D01*
X1899000Y917700D01*
X1897900Y922300D01*
X1896600Y926800D01*
X1895000Y931300D01*
X1893200Y935600D01*
X1891200Y939900D01*
X1888900Y944000D01*
X1886500Y948000D01*
X1883800Y951900D01*
X1880900Y955600D01*
X1877900Y959200D01*
X1874600Y962600D01*
X1871200Y965900D01*
X1867600Y968900D01*
X1863900Y971800D01*
X1860000Y974500D01*
X1856000Y976900D01*
X1851900Y979200D01*
X1847600Y981200D01*
X1843300Y983000D01*
X1838800Y984600D01*
X1834300Y985900D01*
X1829700Y987000D01*
X1825100Y987900D01*
X1820400Y988500D01*
X1815700Y988900D01*
X1811000Y989000D01*
X1561000D01*
Y809000D01*
X1811000D01*
X1815700Y809100D01*
D02*
G37*
G36*
Y1063100D02*
X1820400Y1063500D01*
X1825100Y1064100D01*
X1829700Y1065000D01*
X1834300Y1066100D01*
X1838800Y1067400D01*
X1843300Y1069000D01*
X1847600Y1070800D01*
X1851900Y1072800D01*
X1856000Y1075100D01*
X1860000Y1077500D01*
X1863900Y1080200D01*
X1867600Y1083100D01*
X1871200Y1086100D01*
X1874600Y1089400D01*
X1877900Y1092800D01*
X1880900Y1096400D01*
X1883800Y1100100D01*
X1886500Y1104000D01*
X1888900Y1108000D01*
X1891200Y1112100D01*
X1893200Y1116400D01*
X1895000Y1120700D01*
X1896600Y1125200D01*
X1897900Y1129700D01*
X1899000Y1134300D01*
X1899900Y1138900D01*
X1900500Y1143600D01*
X1900900Y1148300D01*
X1901000Y1153000D01*
X1900900Y1157700D01*
X1900500Y1162400D01*
X1899900Y1167100D01*
X1899000Y1171700D01*
X1897900Y1176300D01*
X1896600Y1180800D01*
X1895000Y1185300D01*
X1893200Y1189600D01*
X1891200Y1193900D01*
X1888900Y1198000D01*
X1886500Y1202000D01*
X1883800Y1205900D01*
X1880900Y1209600D01*
X1877900Y1213200D01*
X1874600Y1216600D01*
X1871200Y1219900D01*
X1867600Y1222900D01*
X1863900Y1225800D01*
X1860000Y1228500D01*
X1856000Y1230900D01*
X1851900Y1233200D01*
X1847600Y1235200D01*
X1843300Y1237000D01*
X1838800Y1238600D01*
X1834300Y1239900D01*
X1829700Y1241000D01*
X1825100Y1241900D01*
X1820400Y1242500D01*
X1815700Y1242900D01*
X1811000Y1243000D01*
X1561000D01*
Y1063000D01*
X1811000D01*
X1815700Y1063100D01*
D02*
G37*
G36*
X3839000Y227000D02*
X3589000D01*
X3584300Y226900D01*
X3579600Y226500D01*
X3574900Y225900D01*
X3570300Y225000D01*
X3565700Y223900D01*
X3561200Y222600D01*
X3556700Y221000D01*
X3552400Y219200D01*
X3548100Y217200D01*
X3544000Y214900D01*
X3540000Y212500D01*
X3536100Y209800D01*
X3532400Y206900D01*
X3528800Y203900D01*
X3525400Y200600D01*
X3522100Y197200D01*
X3519100Y193600D01*
X3516200Y189900D01*
X3513500Y186000D01*
X3511100Y182000D01*
X3508800Y177900D01*
X3506800Y173600D01*
X3505000Y169300D01*
X3503400Y164800D01*
X3502100Y160300D01*
X3501000Y155700D01*
X3500100Y151100D01*
X3499500Y146400D01*
X3499100Y141700D01*
X3499000Y137000D01*
X3499100Y132300D01*
X3499500Y127600D01*
X3500100Y122900D01*
X3501000Y118300D01*
X3502100Y113700D01*
X3503400Y109200D01*
X3505000Y104700D01*
X3506800Y100400D01*
X3508800Y96100D01*
X3511100Y92000D01*
X3513500Y88000D01*
X3516200Y84100D01*
X3519100Y80400D01*
X3522100Y76800D01*
X3525400Y73400D01*
X3528800Y70100D01*
X3532400Y67100D01*
X3536100Y64200D01*
X3540000Y61500D01*
X3544000Y59100D01*
X3548100Y56800D01*
X3552400Y54800D01*
X3556700Y53000D01*
X3561200Y51400D01*
X3565700Y50100D01*
X3570300Y49000D01*
X3574900Y48100D01*
X3579600Y47500D01*
X3584300Y47100D01*
X3589000Y47000D01*
X3839000D01*
Y227000D01*
D02*
G37*
G36*
Y481000D02*
X3589000D01*
X3584300Y480900D01*
X3579600Y480500D01*
X3574900Y479900D01*
X3570300Y479000D01*
X3565700Y477900D01*
X3561200Y476600D01*
X3556700Y475000D01*
X3552400Y473200D01*
X3548100Y471200D01*
X3544000Y468900D01*
X3540000Y466500D01*
X3536100Y463800D01*
X3532400Y460900D01*
X3528800Y457900D01*
X3525400Y454600D01*
X3522100Y451200D01*
X3519100Y447600D01*
X3516200Y443900D01*
X3513500Y440000D01*
X3511100Y436000D01*
X3508800Y431900D01*
X3506800Y427600D01*
X3505000Y423300D01*
X3503400Y418800D01*
X3502100Y414300D01*
X3501000Y409700D01*
X3500100Y405100D01*
X3499500Y400400D01*
X3499100Y395700D01*
X3499000Y391000D01*
X3499100Y386300D01*
X3499500Y381600D01*
X3500100Y376900D01*
X3501000Y372300D01*
X3502100Y367700D01*
X3503400Y363200D01*
X3505000Y358700D01*
X3506800Y354400D01*
X3508800Y350100D01*
X3511100Y346000D01*
X3513500Y342000D01*
X3516200Y338100D01*
X3519100Y334400D01*
X3522100Y330800D01*
X3525400Y327400D01*
X3528800Y324100D01*
X3532400Y321100D01*
X3536100Y318200D01*
X3540000Y315500D01*
X3544000Y313100D01*
X3548100Y310800D01*
X3552400Y308800D01*
X3556700Y307000D01*
X3561200Y305400D01*
X3565700Y304100D01*
X3570300Y303000D01*
X3574900Y302100D01*
X3579600Y301500D01*
X3584300Y301100D01*
X3589000Y301000D01*
X3839000D01*
Y481000D01*
D02*
G37*
G36*
Y735000D02*
X3527400D01*
X3525900Y734800D01*
X3524300Y734600D01*
X3522800Y734300D01*
X3521200Y734000D01*
X3519700Y733500D01*
X3518200Y733000D01*
X3516800Y732400D01*
X3515400Y731700D01*
X3514000Y731000D01*
X3512700Y730200D01*
X3511400Y729300D01*
X3510100Y728300D01*
X3508900Y727300D01*
X3507800Y726200D01*
X3506700Y725100D01*
X3505700Y723900D01*
X3504700Y722600D01*
X3503800Y721300D01*
X3503000Y720000D01*
X3502300Y718600D01*
X3501600Y717200D01*
X3501000Y715800D01*
X3500500Y714300D01*
X3500000Y712800D01*
X3499700Y711200D01*
X3499400Y709700D01*
X3499200Y708100D01*
X3499000Y706600D01*
Y705000D01*
Y585000D01*
Y583400D01*
X3499200Y581900D01*
X3499400Y580300D01*
X3499700Y578800D01*
X3500000Y577200D01*
X3500500Y575700D01*
X3501000Y574200D01*
X3501600Y572800D01*
X3502300Y571400D01*
X3503000Y570000D01*
X3503800Y568700D01*
X3504700Y567400D01*
X3505700Y566100D01*
X3506700Y564900D01*
X3507800Y563800D01*
X3508900Y562700D01*
X3510100Y561700D01*
X3511400Y560700D01*
X3512700Y559800D01*
X3514000Y559000D01*
X3515400Y558300D01*
X3516800Y557600D01*
X3518200Y557000D01*
X3519700Y556500D01*
X3521200Y556000D01*
X3522800Y555700D01*
X3524300Y555400D01*
X3525900Y555200D01*
X3527400Y555000D01*
X3839000D01*
Y735000D01*
D02*
G37*
G36*
Y989000D02*
X3589000D01*
X3584300Y988900D01*
X3579600Y988500D01*
X3574900Y987900D01*
X3570300Y987000D01*
X3565700Y985900D01*
X3561200Y984600D01*
X3556700Y983000D01*
X3552400Y981200D01*
X3548100Y979200D01*
X3544000Y976900D01*
X3540000Y974500D01*
X3536100Y971800D01*
X3532400Y968900D01*
X3528800Y965900D01*
X3525400Y962600D01*
X3522100Y959200D01*
X3519100Y955600D01*
X3516200Y951900D01*
X3513500Y948000D01*
X3511100Y944000D01*
X3508800Y939900D01*
X3506800Y935600D01*
X3505000Y931300D01*
X3503400Y926800D01*
X3502100Y922300D01*
X3501000Y917700D01*
X3500100Y913100D01*
X3499500Y908400D01*
X3499100Y903700D01*
X3499000Y899000D01*
X3499100Y894300D01*
X3499500Y889600D01*
X3500100Y884900D01*
X3501000Y880300D01*
X3502100Y875700D01*
X3503400Y871200D01*
X3505000Y866700D01*
X3506800Y862400D01*
X3508800Y858100D01*
X3511100Y854000D01*
X3513500Y850000D01*
X3516200Y846100D01*
X3519100Y842400D01*
X3522100Y838800D01*
X3525400Y835400D01*
X3528800Y832100D01*
X3532400Y829100D01*
X3536100Y826200D01*
X3540000Y823500D01*
X3544000Y821100D01*
X3548100Y818800D01*
X3552400Y816800D01*
X3556700Y815000D01*
X3561200Y813400D01*
X3565700Y812100D01*
X3570300Y811000D01*
X3574900Y810100D01*
X3579600Y809500D01*
X3584300Y809100D01*
X3589000Y809000D01*
X3839000D01*
Y989000D01*
D02*
G37*
G36*
Y1243000D02*
X3589000D01*
X3584300Y1242900D01*
X3579600Y1242500D01*
X3574900Y1241900D01*
X3570300Y1241000D01*
X3565700Y1239900D01*
X3561200Y1238600D01*
X3556700Y1237000D01*
X3552400Y1235200D01*
X3548100Y1233200D01*
X3544000Y1230900D01*
X3540000Y1228500D01*
X3536100Y1225800D01*
X3532400Y1222900D01*
X3528800Y1219900D01*
X3525400Y1216600D01*
X3522100Y1213200D01*
X3519100Y1209600D01*
X3516200Y1205900D01*
X3513500Y1202000D01*
X3511100Y1198000D01*
X3508800Y1193900D01*
X3506800Y1189600D01*
X3505000Y1185300D01*
X3503400Y1180800D01*
X3502100Y1176300D01*
X3501000Y1171700D01*
X3500100Y1167100D01*
X3499500Y1162400D01*
X3499100Y1157700D01*
X3499000Y1153000D01*
X3499100Y1148300D01*
X3499500Y1143600D01*
X3500100Y1138900D01*
X3501000Y1134300D01*
X3502100Y1129700D01*
X3503400Y1125200D01*
X3505000Y1120700D01*
X3506800Y1116400D01*
X3508800Y1112100D01*
X3511100Y1108000D01*
X3513500Y1104000D01*
X3516200Y1100100D01*
X3519100Y1096400D01*
X3522100Y1092800D01*
X3525400Y1089400D01*
X3528800Y1086100D01*
X3532400Y1083100D01*
X3536100Y1080200D01*
X3540000Y1077500D01*
X3544000Y1075100D01*
X3548100Y1072800D01*
X3552400Y1070800D01*
X3556700Y1069000D01*
X3561200Y1067400D01*
X3565700Y1066100D01*
X3570300Y1065000D01*
X3574900Y1064100D01*
X3579600Y1063500D01*
X3584300Y1063100D01*
X3589000Y1063000D01*
X3839000D01*
Y1243000D01*
D02*
G37*
G36*
X1815700Y1317100D02*
X1820400Y1317500D01*
X1825100Y1318100D01*
X1829700Y1319000D01*
X1834300Y1320100D01*
X1838800Y1321400D01*
X1843300Y1323000D01*
X1847600Y1324800D01*
X1851900Y1326800D01*
X1856000Y1329100D01*
X1860000Y1331500D01*
X1863900Y1334200D01*
X1867600Y1337100D01*
X1871200Y1340100D01*
X1874600Y1343400D01*
X1877900Y1346800D01*
X1880900Y1350400D01*
X1883800Y1354100D01*
X1886500Y1358000D01*
X1888900Y1362000D01*
X1891200Y1366100D01*
X1893200Y1370400D01*
X1895000Y1374700D01*
X1896600Y1379200D01*
X1897900Y1383700D01*
X1899000Y1388300D01*
X1899900Y1392900D01*
X1900500Y1397600D01*
X1900900Y1402300D01*
X1901000Y1407000D01*
X1900900Y1411700D01*
X1900500Y1416400D01*
X1899900Y1421100D01*
X1899000Y1425700D01*
X1897900Y1430300D01*
X1896600Y1434800D01*
X1895000Y1439300D01*
X1893200Y1443600D01*
X1891200Y1447900D01*
X1888900Y1452000D01*
X1886500Y1456000D01*
X1883800Y1459900D01*
X1880900Y1463600D01*
X1877900Y1467200D01*
X1874600Y1470600D01*
X1871200Y1473900D01*
X1867600Y1476900D01*
X1863900Y1479800D01*
X1860000Y1482500D01*
X1856000Y1484900D01*
X1851900Y1487200D01*
X1847600Y1489200D01*
X1843300Y1491000D01*
X1838800Y1492600D01*
X1834300Y1493900D01*
X1829700Y1495000D01*
X1825100Y1495900D01*
X1820400Y1496500D01*
X1815700Y1496900D01*
X1811000Y1497000D01*
X1561000D01*
Y1317000D01*
X1811000D01*
X1815700Y1317100D01*
D02*
G37*
G36*
Y1571100D02*
X1820400Y1571500D01*
X1825100Y1572100D01*
X1829700Y1573000D01*
X1834300Y1574100D01*
X1838800Y1575400D01*
X1843300Y1577000D01*
X1847600Y1578800D01*
X1851900Y1580800D01*
X1856000Y1583100D01*
X1860000Y1585500D01*
X1863900Y1588200D01*
X1867600Y1591100D01*
X1871200Y1594100D01*
X1874600Y1597400D01*
X1877900Y1600800D01*
X1880900Y1604400D01*
X1883800Y1608100D01*
X1886500Y1612000D01*
X1888900Y1616000D01*
X1891200Y1620100D01*
X1893200Y1624400D01*
X1895000Y1628700D01*
X1896600Y1633200D01*
X1897900Y1637700D01*
X1899000Y1642300D01*
X1899900Y1646900D01*
X1900500Y1651600D01*
X1900900Y1656300D01*
X1901000Y1661000D01*
X1900900Y1665700D01*
X1900500Y1670400D01*
X1899900Y1675100D01*
X1899000Y1679700D01*
X1897900Y1684300D01*
X1896600Y1688800D01*
X1895000Y1693300D01*
X1893200Y1697600D01*
X1891200Y1701900D01*
X1888900Y1706000D01*
X1886500Y1710000D01*
X1883800Y1713900D01*
X1880900Y1717600D01*
X1877900Y1721200D01*
X1874600Y1724600D01*
X1871200Y1727900D01*
X1867600Y1730900D01*
X1863900Y1733800D01*
X1860000Y1736500D01*
X1856000Y1738900D01*
X1851900Y1741200D01*
X1847600Y1743200D01*
X1843300Y1745000D01*
X1838800Y1746600D01*
X1834300Y1747900D01*
X1829700Y1749000D01*
X1825100Y1749900D01*
X1820400Y1750500D01*
X1815700Y1750900D01*
X1811000Y1751000D01*
X1561000D01*
Y1571000D01*
X1811000D01*
X1815700Y1571100D01*
D02*
G37*
G36*
X1874100Y1825200D02*
X1875700Y1825400D01*
X1877200Y1825700D01*
X1878800Y1826000D01*
X1880300Y1826500D01*
X1881800Y1827000D01*
X1883200Y1827600D01*
X1884600Y1828300D01*
X1886000Y1829000D01*
X1887300Y1829800D01*
X1888600Y1830700D01*
X1889900Y1831700D01*
X1891100Y1832700D01*
X1892200Y1833800D01*
X1893300Y1834900D01*
X1894300Y1836100D01*
X1895300Y1837400D01*
X1896200Y1838700D01*
X1897000Y1840000D01*
X1897700Y1841400D01*
X1898400Y1842800D01*
X1899000Y1844200D01*
X1899500Y1845700D01*
X1900000Y1847200D01*
X1900300Y1848800D01*
X1900600Y1850300D01*
X1900800Y1851900D01*
X1901000Y1853400D01*
Y1855000D01*
Y1975000D01*
Y1976600D01*
X1900800Y1978100D01*
X1900600Y1979700D01*
X1900300Y1981200D01*
X1900000Y1982800D01*
X1899500Y1984300D01*
X1899000Y1985800D01*
X1898400Y1987200D01*
X1897700Y1988600D01*
X1897000Y1990000D01*
X1896200Y1991300D01*
X1895300Y1992600D01*
X1894300Y1993900D01*
X1893300Y1995100D01*
X1892200Y1996200D01*
X1891100Y1997300D01*
X1889900Y1998300D01*
X1888600Y1999300D01*
X1887300Y2000200D01*
X1886000Y2001000D01*
X1884600Y2001700D01*
X1883200Y2002400D01*
X1881800Y2003000D01*
X1880300Y2003500D01*
X1878800Y2004000D01*
X1877200Y2004300D01*
X1875700Y2004600D01*
X1874100Y2004800D01*
X1872600Y2005000D01*
X1561000D01*
Y1825000D01*
X1872600D01*
X1874100Y1825200D01*
D02*
G37*
G36*
X1815700Y2079100D02*
X1820400Y2079500D01*
X1825100Y2080100D01*
X1829700Y2081000D01*
X1834300Y2082100D01*
X1838800Y2083400D01*
X1843300Y2085000D01*
X1847600Y2086800D01*
X1851900Y2088800D01*
X1856000Y2091100D01*
X1860000Y2093500D01*
X1863900Y2096200D01*
X1867600Y2099100D01*
X1871200Y2102100D01*
X1874600Y2105400D01*
X1877900Y2108800D01*
X1880900Y2112400D01*
X1883800Y2116100D01*
X1886500Y2120000D01*
X1888900Y2124000D01*
X1891200Y2128100D01*
X1893200Y2132400D01*
X1895000Y2136700D01*
X1896600Y2141200D01*
X1897900Y2145700D01*
X1899000Y2150300D01*
X1899900Y2154900D01*
X1900500Y2159600D01*
X1900900Y2164300D01*
X1901000Y2169000D01*
X1900900Y2173700D01*
X1900500Y2178400D01*
X1899900Y2183100D01*
X1899000Y2187700D01*
X1897900Y2192300D01*
X1896600Y2196800D01*
X1895000Y2201300D01*
X1893200Y2205600D01*
X1891200Y2209900D01*
X1888900Y2214000D01*
X1886500Y2218000D01*
X1883800Y2221900D01*
X1880900Y2225600D01*
X1877900Y2229200D01*
X1874600Y2232600D01*
X1871200Y2235900D01*
X1867600Y2238900D01*
X1863900Y2241800D01*
X1860000Y2244500D01*
X1856000Y2246900D01*
X1851900Y2249200D01*
X1847600Y2251200D01*
X1843300Y2253000D01*
X1838800Y2254600D01*
X1834300Y2255900D01*
X1829700Y2257000D01*
X1825100Y2257900D01*
X1820400Y2258500D01*
X1815700Y2258900D01*
X1811000Y2259000D01*
X1561000D01*
Y2079000D01*
X1811000D01*
X1815700Y2079100D01*
D02*
G37*
G36*
Y2333100D02*
X1820400Y2333500D01*
X1825100Y2334100D01*
X1829700Y2335000D01*
X1834300Y2336100D01*
X1838800Y2337400D01*
X1843300Y2339000D01*
X1847600Y2340800D01*
X1851900Y2342800D01*
X1856000Y2345100D01*
X1860000Y2347500D01*
X1863900Y2350200D01*
X1867600Y2353100D01*
X1871200Y2356100D01*
X1874600Y2359400D01*
X1877900Y2362800D01*
X1880900Y2366400D01*
X1883800Y2370100D01*
X1886500Y2374000D01*
X1888900Y2378000D01*
X1891200Y2382100D01*
X1893200Y2386400D01*
X1895000Y2390700D01*
X1896600Y2395200D01*
X1897900Y2399700D01*
X1899000Y2404300D01*
X1899900Y2408900D01*
X1900500Y2413600D01*
X1900900Y2418300D01*
X1901000Y2423000D01*
X1900900Y2427700D01*
X1900500Y2432400D01*
X1899900Y2437100D01*
X1899000Y2441700D01*
X1897900Y2446300D01*
X1896600Y2450800D01*
X1895000Y2455300D01*
X1893200Y2459600D01*
X1891200Y2463900D01*
X1888900Y2468000D01*
X1886500Y2472000D01*
X1883800Y2475900D01*
X1880900Y2479600D01*
X1877900Y2483200D01*
X1874600Y2486600D01*
X1871200Y2489900D01*
X1867600Y2492900D01*
X1863900Y2495800D01*
X1860000Y2498500D01*
X1856000Y2500900D01*
X1851900Y2503200D01*
X1847600Y2505200D01*
X1843300Y2507000D01*
X1838800Y2508600D01*
X1834300Y2509900D01*
X1829700Y2511000D01*
X1825100Y2511900D01*
X1820400Y2512500D01*
X1815700Y2512900D01*
X1811000Y2513000D01*
X1561000D01*
Y2333000D01*
X1811000D01*
X1815700Y2333100D01*
D02*
G37*
G36*
X3839000Y1497000D02*
X3589000D01*
X3584300Y1496900D01*
X3579600Y1496500D01*
X3574900Y1495900D01*
X3570300Y1495000D01*
X3565700Y1493900D01*
X3561200Y1492600D01*
X3556700Y1491000D01*
X3552400Y1489200D01*
X3548100Y1487200D01*
X3544000Y1484900D01*
X3540000Y1482500D01*
X3536100Y1479800D01*
X3532400Y1476900D01*
X3528800Y1473900D01*
X3525400Y1470600D01*
X3522100Y1467200D01*
X3519100Y1463600D01*
X3516200Y1459900D01*
X3513500Y1456000D01*
X3511100Y1452000D01*
X3508800Y1447900D01*
X3506800Y1443600D01*
X3505000Y1439300D01*
X3503400Y1434800D01*
X3502100Y1430300D01*
X3501000Y1425700D01*
X3500100Y1421100D01*
X3499500Y1416400D01*
X3499100Y1411700D01*
X3499000Y1407000D01*
X3499100Y1402300D01*
X3499500Y1397600D01*
X3500100Y1392900D01*
X3501000Y1388300D01*
X3502100Y1383700D01*
X3503400Y1379200D01*
X3505000Y1374700D01*
X3506800Y1370400D01*
X3508800Y1366100D01*
X3511100Y1362000D01*
X3513500Y1358000D01*
X3516200Y1354100D01*
X3519100Y1350400D01*
X3522100Y1346800D01*
X3525400Y1343400D01*
X3528800Y1340100D01*
X3532400Y1337100D01*
X3536100Y1334200D01*
X3540000Y1331500D01*
X3544000Y1329100D01*
X3548100Y1326800D01*
X3552400Y1324800D01*
X3556700Y1323000D01*
X3561200Y1321400D01*
X3565700Y1320100D01*
X3570300Y1319000D01*
X3574900Y1318100D01*
X3579600Y1317500D01*
X3584300Y1317100D01*
X3589000Y1317000D01*
X3839000D01*
Y1497000D01*
D02*
G37*
G36*
Y1751000D02*
X3589000D01*
X3584300Y1750900D01*
X3579600Y1750500D01*
X3574900Y1749900D01*
X3570300Y1749000D01*
X3565700Y1747900D01*
X3561200Y1746600D01*
X3556700Y1745000D01*
X3552400Y1743200D01*
X3548100Y1741200D01*
X3544000Y1738900D01*
X3540000Y1736500D01*
X3536100Y1733800D01*
X3532400Y1730900D01*
X3528800Y1727900D01*
X3525400Y1724600D01*
X3522100Y1721200D01*
X3519100Y1717600D01*
X3516200Y1713900D01*
X3513500Y1710000D01*
X3511100Y1706000D01*
X3508800Y1701900D01*
X3506800Y1697600D01*
X3505000Y1693300D01*
X3503400Y1688800D01*
X3502100Y1684300D01*
X3501000Y1679700D01*
X3500100Y1675100D01*
X3499500Y1670400D01*
X3499100Y1665700D01*
X3499000Y1661000D01*
X3499100Y1656300D01*
X3499500Y1651600D01*
X3500100Y1646900D01*
X3501000Y1642300D01*
X3502100Y1637700D01*
X3503400Y1633200D01*
X3505000Y1628700D01*
X3506800Y1624400D01*
X3508800Y1620100D01*
X3511100Y1616000D01*
X3513500Y1612000D01*
X3516200Y1608100D01*
X3519100Y1604400D01*
X3522100Y1600800D01*
X3525400Y1597400D01*
X3528800Y1594100D01*
X3532400Y1591100D01*
X3536100Y1588200D01*
X3540000Y1585500D01*
X3544000Y1583100D01*
X3548100Y1580800D01*
X3552400Y1578800D01*
X3556700Y1577000D01*
X3561200Y1575400D01*
X3565700Y1574100D01*
X3570300Y1573000D01*
X3574900Y1572100D01*
X3579600Y1571500D01*
X3584300Y1571100D01*
X3589000Y1571000D01*
X3839000D01*
Y1751000D01*
D02*
G37*
G36*
Y2005000D02*
X3527400D01*
X3525900Y2004800D01*
X3524300Y2004600D01*
X3522800Y2004300D01*
X3521200Y2004000D01*
X3519700Y2003500D01*
X3518200Y2003000D01*
X3516800Y2002400D01*
X3515400Y2001700D01*
X3514000Y2001000D01*
X3512700Y2000200D01*
X3511400Y1999300D01*
X3510100Y1998300D01*
X3508900Y1997300D01*
X3507800Y1996200D01*
X3506700Y1995100D01*
X3505700Y1993900D01*
X3504700Y1992600D01*
X3503800Y1991300D01*
X3503000Y1990000D01*
X3502300Y1988600D01*
X3501600Y1987200D01*
X3501000Y1985800D01*
X3500500Y1984300D01*
X3500000Y1982800D01*
X3499700Y1981200D01*
X3499400Y1979700D01*
X3499200Y1978100D01*
X3499000Y1976600D01*
Y1975000D01*
Y1855000D01*
Y1853400D01*
X3499200Y1851900D01*
X3499400Y1850300D01*
X3499700Y1848800D01*
X3500000Y1847200D01*
X3500500Y1845700D01*
X3501000Y1844200D01*
X3501600Y1842800D01*
X3502300Y1841400D01*
X3503000Y1840000D01*
X3503800Y1838700D01*
X3504700Y1837400D01*
X3505700Y1836100D01*
X3506700Y1834900D01*
X3507800Y1833800D01*
X3508900Y1832700D01*
X3510100Y1831700D01*
X3511400Y1830700D01*
X3512700Y1829800D01*
X3514000Y1829000D01*
X3515400Y1828300D01*
X3516800Y1827600D01*
X3518200Y1827000D01*
X3519700Y1826500D01*
X3521200Y1826000D01*
X3522800Y1825700D01*
X3524300Y1825400D01*
X3525900Y1825200D01*
X3527400Y1825000D01*
X3839000D01*
Y2005000D01*
D02*
G37*
G36*
Y2259000D02*
X3589000D01*
X3584300Y2258900D01*
X3579600Y2258500D01*
X3574900Y2257900D01*
X3570300Y2257000D01*
X3565700Y2255900D01*
X3561200Y2254600D01*
X3556700Y2253000D01*
X3552400Y2251200D01*
X3548100Y2249200D01*
X3544000Y2246900D01*
X3540000Y2244500D01*
X3536100Y2241800D01*
X3532400Y2238900D01*
X3528800Y2235900D01*
X3525400Y2232600D01*
X3522100Y2229200D01*
X3519100Y2225600D01*
X3516200Y2221900D01*
X3513500Y2218000D01*
X3511100Y2214000D01*
X3508800Y2209900D01*
X3506800Y2205600D01*
X3505000Y2201300D01*
X3503400Y2196800D01*
X3502100Y2192300D01*
X3501000Y2187700D01*
X3500100Y2183100D01*
X3499500Y2178400D01*
X3499100Y2173700D01*
X3499000Y2169000D01*
X3499100Y2164300D01*
X3499500Y2159600D01*
X3500100Y2154900D01*
X3501000Y2150300D01*
X3502100Y2145700D01*
X3503400Y2141200D01*
X3505000Y2136700D01*
X3506800Y2132400D01*
X3508800Y2128100D01*
X3511100Y2124000D01*
X3513500Y2120000D01*
X3516200Y2116100D01*
X3519100Y2112400D01*
X3522100Y2108800D01*
X3525400Y2105400D01*
X3528800Y2102100D01*
X3532400Y2099100D01*
X3536100Y2096200D01*
X3540000Y2093500D01*
X3544000Y2091100D01*
X3548100Y2088800D01*
X3552400Y2086800D01*
X3556700Y2085000D01*
X3561200Y2083400D01*
X3565700Y2082100D01*
X3570300Y2081000D01*
X3574900Y2080100D01*
X3579600Y2079500D01*
X3584300Y2079100D01*
X3589000Y2079000D01*
X3839000D01*
Y2259000D01*
D02*
G37*
G36*
Y2513000D02*
X3589000D01*
X3584300Y2512900D01*
X3579600Y2512500D01*
X3574900Y2511900D01*
X3570300Y2511000D01*
X3565700Y2509900D01*
X3561200Y2508600D01*
X3556700Y2507000D01*
X3552400Y2505200D01*
X3548100Y2503200D01*
X3544000Y2500900D01*
X3540000Y2498500D01*
X3536100Y2495800D01*
X3532400Y2492900D01*
X3528800Y2489900D01*
X3525400Y2486600D01*
X3522100Y2483200D01*
X3519100Y2479600D01*
X3516200Y2475900D01*
X3513500Y2472000D01*
X3511100Y2468000D01*
X3508800Y2463900D01*
X3506800Y2459600D01*
X3505000Y2455300D01*
X3503400Y2450800D01*
X3502100Y2446300D01*
X3501000Y2441700D01*
X3500100Y2437100D01*
X3499500Y2432400D01*
X3499100Y2427700D01*
X3499000Y2423000D01*
X3499100Y2418300D01*
X3499500Y2413600D01*
X3500100Y2408900D01*
X3501000Y2404300D01*
X3502100Y2399700D01*
X3503400Y2395200D01*
X3505000Y2390700D01*
X3506800Y2386400D01*
X3508800Y2382100D01*
X3511100Y2378000D01*
X3513500Y2374000D01*
X3516200Y2370100D01*
X3519100Y2366400D01*
X3522100Y2362800D01*
X3525400Y2359400D01*
X3528800Y2356100D01*
X3532400Y2353100D01*
X3536100Y2350200D01*
X3540000Y2347500D01*
X3544000Y2345100D01*
X3548100Y2342800D01*
X3552400Y2340800D01*
X3556700Y2339000D01*
X3561200Y2337400D01*
X3565700Y2336100D01*
X3570300Y2335000D01*
X3574900Y2334100D01*
X3579600Y2333500D01*
X3584300Y2333100D01*
X3589000Y2333000D01*
X3839000D01*
Y2513000D01*
D02*
G37*
G36*
X1815700Y2587100D02*
X1820400Y2587500D01*
X1825100Y2588100D01*
X1829700Y2589000D01*
X1834300Y2590100D01*
X1838800Y2591400D01*
X1843300Y2593000D01*
X1847600Y2594800D01*
X1851900Y2596800D01*
X1856000Y2599100D01*
X1860000Y2601500D01*
X1863900Y2604200D01*
X1867600Y2607100D01*
X1871200Y2610100D01*
X1874600Y2613400D01*
X1877900Y2616800D01*
X1880900Y2620400D01*
X1883800Y2624100D01*
X1886500Y2628000D01*
X1888900Y2632000D01*
X1891200Y2636100D01*
X1893200Y2640400D01*
X1895000Y2644700D01*
X1896600Y2649200D01*
X1897900Y2653700D01*
X1899000Y2658300D01*
X1899900Y2662900D01*
X1900500Y2667600D01*
X1900900Y2672300D01*
X1901000Y2677000D01*
X1900900Y2681700D01*
X1900500Y2686400D01*
X1899900Y2691100D01*
X1899000Y2695700D01*
X1897900Y2700300D01*
X1896600Y2704800D01*
X1895000Y2709300D01*
X1893200Y2713600D01*
X1891200Y2717900D01*
X1888900Y2722000D01*
X1886500Y2726000D01*
X1883800Y2729900D01*
X1880900Y2733600D01*
X1877900Y2737200D01*
X1874600Y2740600D01*
X1871200Y2743900D01*
X1867600Y2746900D01*
X1863900Y2749800D01*
X1860000Y2752500D01*
X1856000Y2754900D01*
X1851900Y2757200D01*
X1847600Y2759200D01*
X1843300Y2761000D01*
X1838800Y2762600D01*
X1834300Y2763900D01*
X1829700Y2765000D01*
X1825100Y2765900D01*
X1820400Y2766500D01*
X1815700Y2766900D01*
X1811000Y2767000D01*
X1561000D01*
Y2587000D01*
X1811000D01*
X1815700Y2587100D01*
D02*
G37*
G36*
Y2841100D02*
X1820400Y2841500D01*
X1825100Y2842100D01*
X1829700Y2843000D01*
X1834300Y2844100D01*
X1838800Y2845400D01*
X1843300Y2847000D01*
X1847600Y2848800D01*
X1851900Y2850800D01*
X1856000Y2853100D01*
X1860000Y2855500D01*
X1863900Y2858200D01*
X1867600Y2861100D01*
X1871200Y2864100D01*
X1874600Y2867400D01*
X1877900Y2870800D01*
X1880900Y2874400D01*
X1883800Y2878100D01*
X1886500Y2882000D01*
X1888900Y2886000D01*
X1891200Y2890100D01*
X1893200Y2894400D01*
X1895000Y2898700D01*
X1896600Y2903200D01*
X1897900Y2907700D01*
X1899000Y2912300D01*
X1899900Y2916900D01*
X1900500Y2921600D01*
X1900900Y2926300D01*
X1901000Y2931000D01*
X1900900Y2935700D01*
X1900500Y2940400D01*
X1899900Y2945100D01*
X1899000Y2949700D01*
X1897900Y2954300D01*
X1896600Y2958800D01*
X1895000Y2963300D01*
X1893200Y2967600D01*
X1891200Y2971900D01*
X1888900Y2976000D01*
X1886500Y2980000D01*
X1883800Y2983900D01*
X1880900Y2987600D01*
X1877900Y2991200D01*
X1874600Y2994600D01*
X1871200Y2997900D01*
X1867600Y3000900D01*
X1863900Y3003800D01*
X1860000Y3006500D01*
X1856000Y3008900D01*
X1851900Y3011200D01*
X1847600Y3013200D01*
X1843300Y3015000D01*
X1838800Y3016600D01*
X1834300Y3017900D01*
X1829700Y3019000D01*
X1825100Y3019900D01*
X1820400Y3020500D01*
X1815700Y3020900D01*
X1811000Y3021000D01*
X1561000D01*
Y2841000D01*
X1811000D01*
X1815700Y2841100D01*
D02*
G37*
G36*
X1874100Y3095200D02*
X1875700Y3095400D01*
X1877200Y3095700D01*
X1878800Y3096000D01*
X1880300Y3096500D01*
X1881800Y3097000D01*
X1883200Y3097600D01*
X1884600Y3098300D01*
X1886000Y3099000D01*
X1887300Y3099800D01*
X1888600Y3100700D01*
X1889900Y3101700D01*
X1891100Y3102700D01*
X1892200Y3103800D01*
X1893300Y3104900D01*
X1894300Y3106100D01*
X1895300Y3107400D01*
X1896200Y3108700D01*
X1897000Y3110000D01*
X1897700Y3111400D01*
X1898400Y3112800D01*
X1899000Y3114200D01*
X1899500Y3115700D01*
X1900000Y3117200D01*
X1900300Y3118800D01*
X1900600Y3120300D01*
X1900800Y3121900D01*
X1901000Y3123400D01*
Y3125000D01*
Y3245000D01*
Y3246600D01*
X1900800Y3248100D01*
X1900600Y3249700D01*
X1900300Y3251200D01*
X1900000Y3252800D01*
X1899500Y3254300D01*
X1899000Y3255800D01*
X1898400Y3257200D01*
X1897700Y3258600D01*
X1897000Y3260000D01*
X1896200Y3261300D01*
X1895300Y3262600D01*
X1894300Y3263900D01*
X1893300Y3265100D01*
X1892200Y3266200D01*
X1891100Y3267300D01*
X1889900Y3268300D01*
X1888600Y3269300D01*
X1887300Y3270200D01*
X1886000Y3271000D01*
X1884600Y3271700D01*
X1883200Y3272400D01*
X1881800Y3273000D01*
X1880300Y3273500D01*
X1878800Y3274000D01*
X1877200Y3274300D01*
X1875700Y3274600D01*
X1874100Y3274800D01*
X1872600Y3275000D01*
X1561000D01*
Y3095000D01*
X1872600D01*
X1874100Y3095200D01*
D02*
G37*
G36*
X1815700Y3349100D02*
X1820400Y3349500D01*
X1825100Y3350100D01*
X1829700Y3351000D01*
X1834300Y3352100D01*
X1838800Y3353400D01*
X1843300Y3355000D01*
X1847600Y3356800D01*
X1851900Y3358800D01*
X1856000Y3361100D01*
X1860000Y3363500D01*
X1863900Y3366200D01*
X1867600Y3369100D01*
X1871200Y3372100D01*
X1874600Y3375400D01*
X1877900Y3378800D01*
X1880900Y3382400D01*
X1883800Y3386100D01*
X1886500Y3390000D01*
X1888900Y3394000D01*
X1891200Y3398100D01*
X1893200Y3402400D01*
X1895000Y3406700D01*
X1896600Y3411200D01*
X1897900Y3415700D01*
X1899000Y3420300D01*
X1899900Y3424900D01*
X1900500Y3429600D01*
X1900900Y3434300D01*
X1901000Y3439000D01*
X1900900Y3443700D01*
X1900500Y3448400D01*
X1899900Y3453100D01*
X1899000Y3457700D01*
X1897900Y3462300D01*
X1896600Y3466800D01*
X1895000Y3471300D01*
X1893200Y3475600D01*
X1891200Y3479900D01*
X1888900Y3484000D01*
X1886500Y3488000D01*
X1883800Y3491900D01*
X1880900Y3495600D01*
X1877900Y3499200D01*
X1874600Y3502600D01*
X1871200Y3505900D01*
X1867600Y3508900D01*
X1863900Y3511800D01*
X1860000Y3514500D01*
X1856000Y3516900D01*
X1851900Y3519200D01*
X1847600Y3521200D01*
X1843300Y3523000D01*
X1838800Y3524600D01*
X1834300Y3525900D01*
X1829700Y3527000D01*
X1825100Y3527900D01*
X1820400Y3528500D01*
X1815700Y3528900D01*
X1811000Y3529000D01*
X1561000D01*
Y3349000D01*
X1811000D01*
X1815700Y3349100D01*
D02*
G37*
G36*
Y3603100D02*
X1820400Y3603500D01*
X1825100Y3604100D01*
X1829700Y3605000D01*
X1834300Y3606100D01*
X1838800Y3607400D01*
X1843300Y3609000D01*
X1847600Y3610800D01*
X1851900Y3612800D01*
X1856000Y3615100D01*
X1860000Y3617500D01*
X1863900Y3620200D01*
X1867600Y3623100D01*
X1871200Y3626100D01*
X1874600Y3629400D01*
X1877900Y3632800D01*
X1880900Y3636400D01*
X1883800Y3640100D01*
X1886500Y3644000D01*
X1888900Y3648000D01*
X1891200Y3652100D01*
X1893200Y3656400D01*
X1895000Y3660700D01*
X1896600Y3665200D01*
X1897900Y3669700D01*
X1899000Y3674300D01*
X1899900Y3678900D01*
X1900500Y3683600D01*
X1900900Y3688300D01*
X1901000Y3693000D01*
X1900900Y3697700D01*
X1900500Y3702400D01*
X1899900Y3707100D01*
X1899000Y3711700D01*
X1897900Y3716300D01*
X1896600Y3720800D01*
X1895000Y3725300D01*
X1893200Y3729600D01*
X1891200Y3733900D01*
X1888900Y3738000D01*
X1886500Y3742000D01*
X1883800Y3745900D01*
X1880900Y3749600D01*
X1877900Y3753200D01*
X1874600Y3756600D01*
X1871200Y3759900D01*
X1867600Y3762900D01*
X1863900Y3765800D01*
X1860000Y3768500D01*
X1856000Y3770900D01*
X1851900Y3773200D01*
X1847600Y3775200D01*
X1843300Y3777000D01*
X1838800Y3778600D01*
X1834300Y3779900D01*
X1829700Y3781000D01*
X1825100Y3781900D01*
X1820400Y3782500D01*
X1815700Y3782900D01*
X1811000Y3783000D01*
X1561000D01*
Y3603000D01*
X1811000D01*
X1815700Y3603100D01*
D02*
G37*
G36*
X3839000Y2767000D02*
X3589000D01*
X3584300Y2766900D01*
X3579600Y2766500D01*
X3574900Y2765900D01*
X3570300Y2765000D01*
X3565700Y2763900D01*
X3561200Y2762600D01*
X3556700Y2761000D01*
X3552400Y2759200D01*
X3548100Y2757200D01*
X3544000Y2754900D01*
X3540000Y2752500D01*
X3536100Y2749800D01*
X3532400Y2746900D01*
X3528800Y2743900D01*
X3525400Y2740600D01*
X3522100Y2737200D01*
X3519100Y2733600D01*
X3516200Y2729900D01*
X3513500Y2726000D01*
X3511100Y2722000D01*
X3508800Y2717900D01*
X3506800Y2713600D01*
X3505000Y2709300D01*
X3503400Y2704800D01*
X3502100Y2700300D01*
X3501000Y2695700D01*
X3500100Y2691100D01*
X3499500Y2686400D01*
X3499100Y2681700D01*
X3499000Y2677000D01*
X3499100Y2672300D01*
X3499500Y2667600D01*
X3500100Y2662900D01*
X3501000Y2658300D01*
X3502100Y2653700D01*
X3503400Y2649200D01*
X3505000Y2644700D01*
X3506800Y2640400D01*
X3508800Y2636100D01*
X3511100Y2632000D01*
X3513500Y2628000D01*
X3516200Y2624100D01*
X3519100Y2620400D01*
X3522100Y2616800D01*
X3525400Y2613400D01*
X3528800Y2610100D01*
X3532400Y2607100D01*
X3536100Y2604200D01*
X3540000Y2601500D01*
X3544000Y2599100D01*
X3548100Y2596800D01*
X3552400Y2594800D01*
X3556700Y2593000D01*
X3561200Y2591400D01*
X3565700Y2590100D01*
X3570300Y2589000D01*
X3574900Y2588100D01*
X3579600Y2587500D01*
X3584300Y2587100D01*
X3589000Y2587000D01*
X3839000D01*
Y2767000D01*
D02*
G37*
G36*
Y3021000D02*
X3589000D01*
X3584300Y3020900D01*
X3579600Y3020500D01*
X3574900Y3019900D01*
X3570300Y3019000D01*
X3565700Y3017900D01*
X3561200Y3016600D01*
X3556700Y3015000D01*
X3552400Y3013200D01*
X3548100Y3011200D01*
X3544000Y3008900D01*
X3540000Y3006500D01*
X3536100Y3003800D01*
X3532400Y3000900D01*
X3528800Y2997900D01*
X3525400Y2994600D01*
X3522100Y2991200D01*
X3519100Y2987600D01*
X3516200Y2983900D01*
X3513500Y2980000D01*
X3511100Y2976000D01*
X3508800Y2971900D01*
X3506800Y2967600D01*
X3505000Y2963300D01*
X3503400Y2958800D01*
X3502100Y2954300D01*
X3501000Y2949700D01*
X3500100Y2945100D01*
X3499500Y2940400D01*
X3499100Y2935700D01*
X3499000Y2931000D01*
X3499100Y2926300D01*
X3499500Y2921600D01*
X3500100Y2916900D01*
X3501000Y2912300D01*
X3502100Y2907700D01*
X3503400Y2903200D01*
X3505000Y2898700D01*
X3506800Y2894400D01*
X3508800Y2890100D01*
X3511100Y2886000D01*
X3513500Y2882000D01*
X3516200Y2878100D01*
X3519100Y2874400D01*
X3522100Y2870800D01*
X3525400Y2867400D01*
X3528800Y2864100D01*
X3532400Y2861100D01*
X3536100Y2858200D01*
X3540000Y2855500D01*
X3544000Y2853100D01*
X3548100Y2850800D01*
X3552400Y2848800D01*
X3556700Y2847000D01*
X3561200Y2845400D01*
X3565700Y2844100D01*
X3570300Y2843000D01*
X3574900Y2842100D01*
X3579600Y2841500D01*
X3584300Y2841100D01*
X3589000Y2841000D01*
X3839000D01*
Y3021000D01*
D02*
G37*
G36*
Y3275000D02*
X3527400D01*
X3525900Y3274800D01*
X3524300Y3274600D01*
X3522800Y3274300D01*
X3521200Y3274000D01*
X3519700Y3273500D01*
X3518200Y3273000D01*
X3516800Y3272400D01*
X3515400Y3271700D01*
X3514000Y3271000D01*
X3512700Y3270200D01*
X3511400Y3269300D01*
X3510100Y3268300D01*
X3508900Y3267300D01*
X3507800Y3266200D01*
X3506700Y3265100D01*
X3505700Y3263900D01*
X3504700Y3262600D01*
X3503800Y3261300D01*
X3503000Y3260000D01*
X3502300Y3258600D01*
X3501600Y3257200D01*
X3501000Y3255800D01*
X3500500Y3254300D01*
X3500000Y3252800D01*
X3499700Y3251200D01*
X3499400Y3249700D01*
X3499200Y3248100D01*
X3499000Y3246600D01*
Y3245000D01*
Y3125000D01*
Y3123400D01*
X3499200Y3121900D01*
X3499400Y3120300D01*
X3499700Y3118800D01*
X3500000Y3117200D01*
X3500500Y3115700D01*
X3501000Y3114200D01*
X3501600Y3112800D01*
X3502300Y3111400D01*
X3503000Y3110000D01*
X3503800Y3108700D01*
X3504700Y3107400D01*
X3505700Y3106100D01*
X3506700Y3104900D01*
X3507800Y3103800D01*
X3508900Y3102700D01*
X3510100Y3101700D01*
X3511400Y3100700D01*
X3512700Y3099800D01*
X3514000Y3099000D01*
X3515400Y3098300D01*
X3516800Y3097600D01*
X3518200Y3097000D01*
X3519700Y3096500D01*
X3521200Y3096000D01*
X3522800Y3095700D01*
X3524300Y3095400D01*
X3525900Y3095200D01*
X3527400Y3095000D01*
X3839000D01*
Y3275000D01*
D02*
G37*
G36*
Y3529000D02*
X3589000D01*
X3584300Y3528900D01*
X3579600Y3528500D01*
X3574900Y3527900D01*
X3570300Y3527000D01*
X3565700Y3525900D01*
X3561200Y3524600D01*
X3556700Y3523000D01*
X3552400Y3521200D01*
X3548100Y3519200D01*
X3544000Y3516900D01*
X3540000Y3514500D01*
X3536100Y3511800D01*
X3532400Y3508900D01*
X3528800Y3505900D01*
X3525400Y3502600D01*
X3522100Y3499200D01*
X3519100Y3495600D01*
X3516200Y3491900D01*
X3513500Y3488000D01*
X3511100Y3484000D01*
X3508800Y3479900D01*
X3506800Y3475600D01*
X3505000Y3471300D01*
X3503400Y3466800D01*
X3502100Y3462300D01*
X3501000Y3457700D01*
X3500100Y3453100D01*
X3499500Y3448400D01*
X3499100Y3443700D01*
X3499000Y3439000D01*
X3499100Y3434300D01*
X3499500Y3429600D01*
X3500100Y3424900D01*
X3501000Y3420300D01*
X3502100Y3415700D01*
X3503400Y3411200D01*
X3505000Y3406700D01*
X3506800Y3402400D01*
X3508800Y3398100D01*
X3511100Y3394000D01*
X3513500Y3390000D01*
X3516200Y3386100D01*
X3519100Y3382400D01*
X3522100Y3378800D01*
X3525400Y3375400D01*
X3528800Y3372100D01*
X3532400Y3369100D01*
X3536100Y3366200D01*
X3540000Y3363500D01*
X3544000Y3361100D01*
X3548100Y3358800D01*
X3552400Y3356800D01*
X3556700Y3355000D01*
X3561200Y3353400D01*
X3565700Y3352100D01*
X3570300Y3351000D01*
X3574900Y3350100D01*
X3579600Y3349500D01*
X3584300Y3349100D01*
X3589000Y3349000D01*
X3839000D01*
Y3529000D01*
D02*
G37*
G36*
Y3783000D02*
X3589000D01*
X3584300Y3782900D01*
X3579600Y3782500D01*
X3574900Y3781900D01*
X3570300Y3781000D01*
X3565700Y3779900D01*
X3561200Y3778600D01*
X3556700Y3777000D01*
X3552400Y3775200D01*
X3548100Y3773200D01*
X3544000Y3770900D01*
X3540000Y3768500D01*
X3536100Y3765800D01*
X3532400Y3762900D01*
X3528800Y3759900D01*
X3525400Y3756600D01*
X3522100Y3753200D01*
X3519100Y3749600D01*
X3516200Y3745900D01*
X3513500Y3742000D01*
X3511100Y3738000D01*
X3508800Y3733900D01*
X3506800Y3729600D01*
X3505000Y3725300D01*
X3503400Y3720800D01*
X3502100Y3716300D01*
X3501000Y3711700D01*
X3500100Y3707100D01*
X3499500Y3702400D01*
X3499100Y3697700D01*
X3499000Y3693000D01*
X3499100Y3688300D01*
X3499500Y3683600D01*
X3500100Y3678900D01*
X3501000Y3674300D01*
X3502100Y3669700D01*
X3503400Y3665200D01*
X3505000Y3660700D01*
X3506800Y3656400D01*
X3508800Y3652100D01*
X3511100Y3648000D01*
X3513500Y3644000D01*
X3516200Y3640100D01*
X3519100Y3636400D01*
X3522100Y3632800D01*
X3525400Y3629400D01*
X3528800Y3626100D01*
X3532400Y3623100D01*
X3536100Y3620200D01*
X3540000Y3617500D01*
X3544000Y3615100D01*
X3548100Y3612800D01*
X3552400Y3610800D01*
X3556700Y3609000D01*
X3561200Y3607400D01*
X3565700Y3606100D01*
X3570300Y3605000D01*
X3574900Y3604100D01*
X3579600Y3603500D01*
X3584300Y3603100D01*
X3589000Y3603000D01*
X3839000D01*
Y3783000D01*
D02*
G37*
G36*
X1815700Y3857100D02*
X1820400Y3857500D01*
X1825100Y3858100D01*
X1829700Y3859000D01*
X1834300Y3860100D01*
X1838800Y3861400D01*
X1843300Y3863000D01*
X1847600Y3864800D01*
X1851900Y3866800D01*
X1856000Y3869100D01*
X1860000Y3871500D01*
X1863900Y3874200D01*
X1867600Y3877100D01*
X1871200Y3880100D01*
X1874600Y3883400D01*
X1877900Y3886800D01*
X1880900Y3890400D01*
X1883800Y3894100D01*
X1886500Y3898000D01*
X1888900Y3902000D01*
X1891200Y3906100D01*
X1893200Y3910400D01*
X1895000Y3914700D01*
X1896600Y3919200D01*
X1897900Y3923700D01*
X1899000Y3928300D01*
X1899900Y3932900D01*
X1900500Y3937600D01*
X1900900Y3942300D01*
X1901000Y3947000D01*
X1900900Y3951700D01*
X1900500Y3956400D01*
X1899900Y3961100D01*
X1899000Y3965700D01*
X1897900Y3970300D01*
X1896600Y3974800D01*
X1895000Y3979300D01*
X1893200Y3983600D01*
X1891200Y3987900D01*
X1888900Y3992000D01*
X1886500Y3996000D01*
X1883800Y3999900D01*
X1880900Y4003600D01*
X1877900Y4007200D01*
X1874600Y4010600D01*
X1871200Y4013900D01*
X1867600Y4016900D01*
X1863900Y4019800D01*
X1860000Y4022500D01*
X1856000Y4024900D01*
X1851900Y4027200D01*
X1847600Y4029200D01*
X1843300Y4031000D01*
X1838800Y4032600D01*
X1834300Y4033900D01*
X1829700Y4035000D01*
X1825100Y4035900D01*
X1820400Y4036500D01*
X1815700Y4036900D01*
X1811000Y4037000D01*
X1561000D01*
Y3857000D01*
X1811000D01*
X1815700Y3857100D01*
D02*
G37*
G36*
Y4111100D02*
X1820400Y4111500D01*
X1825100Y4112100D01*
X1829700Y4113000D01*
X1834300Y4114100D01*
X1838800Y4115400D01*
X1843300Y4117000D01*
X1847600Y4118800D01*
X1851900Y4120800D01*
X1856000Y4123100D01*
X1860000Y4125500D01*
X1863900Y4128200D01*
X1867600Y4131100D01*
X1871200Y4134100D01*
X1874600Y4137400D01*
X1877900Y4140800D01*
X1880900Y4144400D01*
X1883800Y4148100D01*
X1886500Y4152000D01*
X1888900Y4156000D01*
X1891200Y4160100D01*
X1893200Y4164400D01*
X1895000Y4168700D01*
X1896600Y4173200D01*
X1897900Y4177700D01*
X1899000Y4182300D01*
X1899900Y4186900D01*
X1900500Y4191600D01*
X1900900Y4196300D01*
X1901000Y4201000D01*
X1900900Y4205700D01*
X1900500Y4210400D01*
X1899900Y4215100D01*
X1899000Y4219700D01*
X1897900Y4224300D01*
X1896600Y4228800D01*
X1895000Y4233300D01*
X1893200Y4237600D01*
X1891200Y4241900D01*
X1888900Y4246000D01*
X1886500Y4250000D01*
X1883800Y4253900D01*
X1880900Y4257600D01*
X1877900Y4261200D01*
X1874600Y4264600D01*
X1871200Y4267900D01*
X1867600Y4270900D01*
X1863900Y4273800D01*
X1860000Y4276500D01*
X1856000Y4278900D01*
X1851900Y4281200D01*
X1847600Y4283200D01*
X1843300Y4285000D01*
X1838800Y4286600D01*
X1834300Y4287900D01*
X1829700Y4289000D01*
X1825100Y4289900D01*
X1820400Y4290500D01*
X1815700Y4290900D01*
X1811000Y4291000D01*
X1561000D01*
Y4111000D01*
X1811000D01*
X1815700Y4111100D01*
D02*
G37*
G36*
X1874100Y4365200D02*
X1875700Y4365400D01*
X1877200Y4365700D01*
X1878800Y4366000D01*
X1880300Y4366500D01*
X1881800Y4367000D01*
X1883200Y4367600D01*
X1884600Y4368300D01*
X1886000Y4369000D01*
X1887300Y4369800D01*
X1888600Y4370700D01*
X1889900Y4371700D01*
X1891100Y4372700D01*
X1892200Y4373800D01*
X1893300Y4374900D01*
X1894300Y4376100D01*
X1895300Y4377400D01*
X1896200Y4378700D01*
X1897000Y4380000D01*
X1897700Y4381400D01*
X1898400Y4382800D01*
X1899000Y4384200D01*
X1899500Y4385700D01*
X1900000Y4387200D01*
X1900300Y4388800D01*
X1900600Y4390300D01*
X1900800Y4391900D01*
X1901000Y4393400D01*
Y4395000D01*
Y4515000D01*
Y4516600D01*
X1900800Y4518100D01*
X1900600Y4519700D01*
X1900300Y4521200D01*
X1900000Y4522800D01*
X1899500Y4524300D01*
X1899000Y4525800D01*
X1898400Y4527200D01*
X1897700Y4528600D01*
X1897000Y4530000D01*
X1896200Y4531300D01*
X1895300Y4532600D01*
X1894300Y4533900D01*
X1893300Y4535100D01*
X1892200Y4536200D01*
X1891100Y4537300D01*
X1889900Y4538300D01*
X1888600Y4539300D01*
X1887300Y4540200D01*
X1886000Y4541000D01*
X1884600Y4541700D01*
X1883200Y4542400D01*
X1881800Y4543000D01*
X1880300Y4543500D01*
X1878800Y4544000D01*
X1877200Y4544300D01*
X1875700Y4544600D01*
X1874100Y4544800D01*
X1872600Y4545000D01*
X1561000D01*
Y4365000D01*
X1872600D01*
X1874100Y4365200D01*
D02*
G37*
G36*
X1815700Y4619100D02*
X1820400Y4619500D01*
X1825100Y4620100D01*
X1829700Y4621000D01*
X1834300Y4622100D01*
X1838800Y4623400D01*
X1843300Y4625000D01*
X1847600Y4626800D01*
X1851900Y4628800D01*
X1856000Y4631100D01*
X1860000Y4633500D01*
X1863900Y4636200D01*
X1867600Y4639100D01*
X1871200Y4642100D01*
X1874600Y4645400D01*
X1877900Y4648800D01*
X1880900Y4652400D01*
X1883800Y4656100D01*
X1886500Y4660000D01*
X1888900Y4664000D01*
X1891200Y4668100D01*
X1893200Y4672400D01*
X1895000Y4676700D01*
X1896600Y4681200D01*
X1897900Y4685700D01*
X1899000Y4690300D01*
X1899900Y4694900D01*
X1900500Y4699600D01*
X1900900Y4704300D01*
X1901000Y4709000D01*
X1900900Y4713700D01*
X1900500Y4718400D01*
X1899900Y4723100D01*
X1899000Y4727700D01*
X1897900Y4732300D01*
X1896600Y4736800D01*
X1895000Y4741300D01*
X1893200Y4745600D01*
X1891200Y4749900D01*
X1888900Y4754000D01*
X1886500Y4758000D01*
X1883800Y4761900D01*
X1880900Y4765600D01*
X1877900Y4769200D01*
X1874600Y4772600D01*
X1871200Y4775900D01*
X1867600Y4778900D01*
X1863900Y4781800D01*
X1860000Y4784500D01*
X1856000Y4786900D01*
X1851900Y4789200D01*
X1847600Y4791200D01*
X1843300Y4793000D01*
X1838800Y4794600D01*
X1834300Y4795900D01*
X1829700Y4797000D01*
X1825100Y4797900D01*
X1820400Y4798500D01*
X1815700Y4798900D01*
X1811000Y4799000D01*
X1561000D01*
Y4619000D01*
X1811000D01*
X1815700Y4619100D01*
D02*
G37*
G36*
Y4873100D02*
X1820400Y4873500D01*
X1825100Y4874100D01*
X1829700Y4875000D01*
X1834300Y4876100D01*
X1838800Y4877400D01*
X1843300Y4879000D01*
X1847600Y4880800D01*
X1851900Y4882800D01*
X1856000Y4885100D01*
X1860000Y4887500D01*
X1863900Y4890200D01*
X1867600Y4893100D01*
X1871200Y4896100D01*
X1874600Y4899400D01*
X1877900Y4902800D01*
X1880900Y4906400D01*
X1883800Y4910100D01*
X1886500Y4914000D01*
X1888900Y4918000D01*
X1891200Y4922100D01*
X1893200Y4926400D01*
X1895000Y4930700D01*
X1896600Y4935200D01*
X1897900Y4939700D01*
X1899000Y4944300D01*
X1899900Y4948900D01*
X1900500Y4953600D01*
X1900900Y4958300D01*
X1901000Y4963000D01*
X1900900Y4967700D01*
X1900500Y4972400D01*
X1899900Y4977100D01*
X1899000Y4981700D01*
X1897900Y4986300D01*
X1896600Y4990800D01*
X1895000Y4995300D01*
X1893200Y4999600D01*
X1891200Y5003900D01*
X1888900Y5008000D01*
X1886500Y5012000D01*
X1883800Y5015900D01*
X1880900Y5019600D01*
X1877900Y5023200D01*
X1874600Y5026600D01*
X1871200Y5029900D01*
X1867600Y5032900D01*
X1863900Y5035800D01*
X1860000Y5038500D01*
X1856000Y5040900D01*
X1851900Y5043200D01*
X1847600Y5045200D01*
X1843300Y5047000D01*
X1838800Y5048600D01*
X1834300Y5049900D01*
X1829700Y5051000D01*
X1825100Y5051900D01*
X1820400Y5052500D01*
X1815700Y5052900D01*
X1811000Y5053000D01*
X1561000D01*
Y4873000D01*
X1811000D01*
X1815700Y4873100D01*
D02*
G37*
G36*
X3839000Y4037000D02*
X3589000D01*
X3584300Y4036900D01*
X3579600Y4036500D01*
X3574900Y4035900D01*
X3570300Y4035000D01*
X3565700Y4033900D01*
X3561200Y4032600D01*
X3556700Y4031000D01*
X3552400Y4029200D01*
X3548100Y4027200D01*
X3544000Y4024900D01*
X3540000Y4022500D01*
X3536100Y4019800D01*
X3532400Y4016900D01*
X3528800Y4013900D01*
X3525400Y4010600D01*
X3522100Y4007200D01*
X3519100Y4003600D01*
X3516200Y3999900D01*
X3513500Y3996000D01*
X3511100Y3992000D01*
X3508800Y3987900D01*
X3506800Y3983600D01*
X3505000Y3979300D01*
X3503400Y3974800D01*
X3502100Y3970300D01*
X3501000Y3965700D01*
X3500100Y3961100D01*
X3499500Y3956400D01*
X3499100Y3951700D01*
X3499000Y3947000D01*
X3499100Y3942300D01*
X3499500Y3937600D01*
X3500100Y3932900D01*
X3501000Y3928300D01*
X3502100Y3923700D01*
X3503400Y3919200D01*
X3505000Y3914700D01*
X3506800Y3910400D01*
X3508800Y3906100D01*
X3511100Y3902000D01*
X3513500Y3898000D01*
X3516200Y3894100D01*
X3519100Y3890400D01*
X3522100Y3886800D01*
X3525400Y3883400D01*
X3528800Y3880100D01*
X3532400Y3877100D01*
X3536100Y3874200D01*
X3540000Y3871500D01*
X3544000Y3869100D01*
X3548100Y3866800D01*
X3552400Y3864800D01*
X3556700Y3863000D01*
X3561200Y3861400D01*
X3565700Y3860100D01*
X3570300Y3859000D01*
X3574900Y3858100D01*
X3579600Y3857500D01*
X3584300Y3857100D01*
X3589000Y3857000D01*
X3839000D01*
Y4037000D01*
D02*
G37*
G36*
Y4291000D02*
X3589000D01*
X3584300Y4290900D01*
X3579600Y4290500D01*
X3574900Y4289900D01*
X3570300Y4289000D01*
X3565700Y4287900D01*
X3561200Y4286600D01*
X3556700Y4285000D01*
X3552400Y4283200D01*
X3548100Y4281200D01*
X3544000Y4278900D01*
X3540000Y4276500D01*
X3536100Y4273800D01*
X3532400Y4270900D01*
X3528800Y4267900D01*
X3525400Y4264600D01*
X3522100Y4261200D01*
X3519100Y4257600D01*
X3516200Y4253900D01*
X3513500Y4250000D01*
X3511100Y4246000D01*
X3508800Y4241900D01*
X3506800Y4237600D01*
X3505000Y4233300D01*
X3503400Y4228800D01*
X3502100Y4224300D01*
X3501000Y4219700D01*
X3500100Y4215100D01*
X3499500Y4210400D01*
X3499100Y4205700D01*
X3499000Y4201000D01*
X3499100Y4196300D01*
X3499500Y4191600D01*
X3500100Y4186900D01*
X3501000Y4182300D01*
X3502100Y4177700D01*
X3503400Y4173200D01*
X3505000Y4168700D01*
X3506800Y4164400D01*
X3508800Y4160100D01*
X3511100Y4156000D01*
X3513500Y4152000D01*
X3516200Y4148100D01*
X3519100Y4144400D01*
X3522100Y4140800D01*
X3525400Y4137400D01*
X3528800Y4134100D01*
X3532400Y4131100D01*
X3536100Y4128200D01*
X3540000Y4125500D01*
X3544000Y4123100D01*
X3548100Y4120800D01*
X3552400Y4118800D01*
X3556700Y4117000D01*
X3561200Y4115400D01*
X3565700Y4114100D01*
X3570300Y4113000D01*
X3574900Y4112100D01*
X3579600Y4111500D01*
X3584300Y4111100D01*
X3589000Y4111000D01*
X3839000D01*
Y4291000D01*
D02*
G37*
G36*
Y4545000D02*
X3527400D01*
X3525900Y4544800D01*
X3524300Y4544600D01*
X3522800Y4544300D01*
X3521200Y4544000D01*
X3519700Y4543500D01*
X3518200Y4543000D01*
X3516800Y4542400D01*
X3515400Y4541700D01*
X3514000Y4541000D01*
X3512700Y4540200D01*
X3511400Y4539300D01*
X3510100Y4538300D01*
X3508900Y4537300D01*
X3507800Y4536200D01*
X3506700Y4535100D01*
X3505700Y4533900D01*
X3504700Y4532600D01*
X3503800Y4531300D01*
X3503000Y4530000D01*
X3502300Y4528600D01*
X3501600Y4527200D01*
X3501000Y4525800D01*
X3500500Y4524300D01*
X3500000Y4522800D01*
X3499700Y4521200D01*
X3499400Y4519700D01*
X3499200Y4518100D01*
X3499000Y4516600D01*
Y4515000D01*
Y4395000D01*
Y4393400D01*
X3499200Y4391900D01*
X3499400Y4390300D01*
X3499700Y4388800D01*
X3500000Y4387200D01*
X3500500Y4385700D01*
X3501000Y4384200D01*
X3501600Y4382800D01*
X3502300Y4381400D01*
X3503000Y4380000D01*
X3503800Y4378700D01*
X3504700Y4377400D01*
X3505700Y4376100D01*
X3506700Y4374900D01*
X3507800Y4373800D01*
X3508900Y4372700D01*
X3510100Y4371700D01*
X3511400Y4370700D01*
X3512700Y4369800D01*
X3514000Y4369000D01*
X3515400Y4368300D01*
X3516800Y4367600D01*
X3518200Y4367000D01*
X3519700Y4366500D01*
X3521200Y4366000D01*
X3522800Y4365700D01*
X3524300Y4365400D01*
X3525900Y4365200D01*
X3527400Y4365000D01*
X3839000D01*
Y4545000D01*
D02*
G37*
G36*
Y4799000D02*
X3589000D01*
X3584300Y4798900D01*
X3579600Y4798500D01*
X3574900Y4797900D01*
X3570300Y4797000D01*
X3565700Y4795900D01*
X3561200Y4794600D01*
X3556700Y4793000D01*
X3552400Y4791200D01*
X3548100Y4789200D01*
X3544000Y4786900D01*
X3540000Y4784500D01*
X3536100Y4781800D01*
X3532400Y4778900D01*
X3528800Y4775900D01*
X3525400Y4772600D01*
X3522100Y4769200D01*
X3519100Y4765600D01*
X3516200Y4761900D01*
X3513500Y4758000D01*
X3511100Y4754000D01*
X3508800Y4749900D01*
X3506800Y4745600D01*
X3505000Y4741300D01*
X3503400Y4736800D01*
X3502100Y4732300D01*
X3501000Y4727700D01*
X3500100Y4723100D01*
X3499500Y4718400D01*
X3499100Y4713700D01*
X3499000Y4709000D01*
X3499100Y4704300D01*
X3499500Y4699600D01*
X3500100Y4694900D01*
X3501000Y4690300D01*
X3502100Y4685700D01*
X3503400Y4681200D01*
X3505000Y4676700D01*
X3506800Y4672400D01*
X3508800Y4668100D01*
X3511100Y4664000D01*
X3513500Y4660000D01*
X3516200Y4656100D01*
X3519100Y4652400D01*
X3522100Y4648800D01*
X3525400Y4645400D01*
X3528800Y4642100D01*
X3532400Y4639100D01*
X3536100Y4636200D01*
X3540000Y4633500D01*
X3544000Y4631100D01*
X3548100Y4628800D01*
X3552400Y4626800D01*
X3556700Y4625000D01*
X3561200Y4623400D01*
X3565700Y4622100D01*
X3570300Y4621000D01*
X3574900Y4620100D01*
X3579600Y4619500D01*
X3584300Y4619100D01*
X3589000Y4619000D01*
X3839000D01*
Y4799000D01*
D02*
G37*
G36*
Y5053000D02*
X3589000D01*
X3584300Y5052900D01*
X3579600Y5052500D01*
X3574900Y5051900D01*
X3570300Y5051000D01*
X3565700Y5049900D01*
X3561200Y5048600D01*
X3556700Y5047000D01*
X3552400Y5045200D01*
X3548100Y5043200D01*
X3544000Y5040900D01*
X3540000Y5038500D01*
X3536100Y5035800D01*
X3532400Y5032900D01*
X3528800Y5029900D01*
X3525400Y5026600D01*
X3522100Y5023200D01*
X3519100Y5019600D01*
X3516200Y5015900D01*
X3513500Y5012000D01*
X3511100Y5008000D01*
X3508800Y5003900D01*
X3506800Y4999600D01*
X3505000Y4995300D01*
X3503400Y4990800D01*
X3502100Y4986300D01*
X3501000Y4981700D01*
X3500100Y4977100D01*
X3499500Y4972400D01*
X3499100Y4967700D01*
X3499000Y4963000D01*
X3499100Y4958300D01*
X3499500Y4953600D01*
X3500100Y4948900D01*
X3501000Y4944300D01*
X3502100Y4939700D01*
X3503400Y4935200D01*
X3505000Y4930700D01*
X3506800Y4926400D01*
X3508800Y4922100D01*
X3511100Y4918000D01*
X3513500Y4914000D01*
X3516200Y4910100D01*
X3519100Y4906400D01*
X3522100Y4902800D01*
X3525400Y4899400D01*
X3528800Y4896100D01*
X3532400Y4893100D01*
X3536100Y4890200D01*
X3540000Y4887500D01*
X3544000Y4885100D01*
X3548100Y4882800D01*
X3552400Y4880800D01*
X3556700Y4879000D01*
X3561200Y4877400D01*
X3565700Y4876100D01*
X3570300Y4875000D01*
X3574900Y4874100D01*
X3579600Y4873500D01*
X3584300Y4873100D01*
X3589000Y4873000D01*
X3839000D01*
Y5053000D01*
D02*
G37*
D13*
X4140000Y6630000D02*
D03*
X170000Y777000D02*
D03*
X4110000Y787000D02*
D03*
D14*
X4140000Y6884000D02*
D03*
X170000Y523000D02*
D03*
X4110000Y533000D02*
D03*
X3550000Y7480000D02*
D03*
X3296000D02*
D03*
X2280000D02*
D03*
X1518000D02*
D03*
X1010000D02*
D03*
X502000D02*
D03*
X756000D02*
D03*
X1264000D02*
D03*
X1772000D02*
D03*
X2026000D02*
D03*
X2534000D02*
D03*
X2788000D02*
D03*
X3042000D02*
D03*
X3804000D02*
D03*
X4058000D02*
D03*
D15*
X248000D02*
D03*
D16*
X580000Y5740000D02*
D03*
X440000Y5570000D02*
D03*
X310000Y5450000D02*
D03*
X190000Y5260000D02*
D03*
X90000Y5120000D02*
D03*
X1440000Y4200000D02*
D03*
X3960000Y2430000D02*
D03*
Y3060000D02*
D03*
X1990000Y6280000D02*
D03*
X1650000Y5300000D02*
D03*
X2020000Y5510000D02*
D03*
X1830000Y5200000D02*
D03*
X1840000Y5400000D02*
D03*
X3410000Y5510000D02*
D03*
Y5310000D02*
D03*
X3220000Y5200000D02*
D03*
X3230000Y5410000D02*
D03*
X1350000Y6170000D02*
D03*
X1120000Y5930000D02*
D03*
X1260000Y7200000D02*
D03*
X1010000Y6920000D02*
D03*
Y7200000D02*
D03*
X3140000Y3410000D02*
D03*
X3300000Y3700000D02*
D03*
X3950000Y4720000D02*
D03*
X1440000Y1150000D02*
D03*
X1170000D02*
D03*
X1108500Y900000D02*
D03*
X1010000Y390000D02*
D03*
X1440000D02*
D03*
Y900000D02*
D03*
X850000Y4390000D02*
D03*
X4110000Y1140000D02*
D03*
D30*
X2758410Y3120000D02*
D03*
D31*
X3266410D02*
D03*
X3012410D02*
D03*
D32*
X2942500Y453000D02*
D03*
X2457500D02*
D03*
D33*
X2972500Y150000D02*
D03*
X2427500D02*
D03*
D34*
X2450000Y1450000D02*
D03*
Y1200000D02*
D03*
Y950000D02*
D03*
X2700000Y450000D02*
D03*
X2800000Y120000D02*
D03*
X2600000D02*
D03*
D35*
X615000Y6745000D02*
D03*
Y4215000D02*
D03*
D36*
X850000Y6430000D02*
D03*
Y6330000D02*
D03*
Y6230000D02*
D03*
Y6130000D02*
D03*
Y6030000D02*
D03*
Y5930000D02*
D03*
Y5830000D02*
D03*
Y5730000D02*
D03*
Y5630000D02*
D03*
Y5530000D02*
D03*
Y5430000D02*
D03*
Y5330000D02*
D03*
Y5230000D02*
D03*
Y5130000D02*
D03*
Y5030000D02*
D03*
Y4930000D02*
D03*
Y4830000D02*
D03*
Y4730000D02*
D03*
Y4630000D02*
D03*
Y4530000D02*
D03*
M02*
