G04*
G04 #@! TF.GenerationSoftware,Altium Limited,Altium Designer,25.2.1 (25)*
G04*
G04 Layer_Physical_Order=1*
G04 Layer_Color=255*
%FSLAX45Y45*%
%MOMM*%
G71*
G04*
G04 #@! TF.SameCoordinates,CBFBDC55-191E-4970-A60F-4FA5A60A4AEF*
G04*
G04*
G04 #@! TF.FilePolarity,Positive*
G04*
G01*
G75*
%ADD17C,0.30000*%
G04:AMPARAMS|DCode=18|XSize=1.6mm|YSize=1.6mm|CornerRadius=0.4mm|HoleSize=0mm|Usage=FLASHONLY|Rotation=90.000|XOffset=0mm|YOffset=0mm|HoleType=Round|Shape=RoundedRectangle|*
%AMROUNDEDRECTD18*
21,1,1.60000,0.80000,0,0,90.0*
21,1,0.80000,1.60000,0,0,90.0*
1,1,0.80000,0.40000,0.40000*
1,1,0.80000,0.40000,-0.40000*
1,1,0.80000,-0.40000,-0.40000*
1,1,0.80000,-0.40000,0.40000*
%
%ADD18ROUNDEDRECTD18*%
%ADD19C,1.60000*%
G04:AMPARAMS|DCode=20|XSize=1.6mm|YSize=1.6mm|CornerRadius=0.4mm|HoleSize=0mm|Usage=FLASHONLY|Rotation=0.000|XOffset=0mm|YOffset=0mm|HoleType=Round|Shape=RoundedRectangle|*
%AMROUNDEDRECTD20*
21,1,1.60000,0.80000,0,0,0.0*
21,1,0.80000,1.60000,0,0,0.0*
1,1,0.80000,0.40000,-0.40000*
1,1,0.80000,-0.40000,-0.40000*
1,1,0.80000,-0.40000,0.40000*
1,1,0.80000,0.40000,0.40000*
%
%ADD20ROUNDEDRECTD20*%
%ADD21C,1.27000*%
G36*
X4299945Y7600992D02*
X4260000Y1070000D01*
X4240000Y1050000D01*
X2630000D01*
Y3540000D01*
X2420000Y3750000D01*
X310000D01*
Y5366500D01*
X320993D01*
X342230Y5372190D01*
X361270Y5383183D01*
X376817Y5398730D01*
X387809Y5417770D01*
X393500Y5439007D01*
Y5460993D01*
X387809Y5482230D01*
X381258Y5493578D01*
X382061Y5494611D01*
X391200Y5501757D01*
X407770Y5492190D01*
X429007Y5486500D01*
X450993D01*
X472230Y5492190D01*
X491270Y5503183D01*
X506817Y5518730D01*
X517809Y5537770D01*
X523500Y5559007D01*
Y5580993D01*
X517809Y5602230D01*
X506817Y5621270D01*
X491270Y5636817D01*
X472230Y5647810D01*
X450993Y5653500D01*
X445686D01*
Y6904315D01*
X927757D01*
X932190Y6887770D01*
X943183Y6868730D01*
X958730Y6853183D01*
X977770Y6842190D01*
X999007Y6836500D01*
X1020993D01*
X1042230Y6842190D01*
X1061270Y6853183D01*
X1076817Y6868730D01*
X1087810Y6887770D01*
X1093500Y6909007D01*
Y6930993D01*
X1087810Y6952230D01*
X1076817Y6971270D01*
X1061270Y6986817D01*
X1042230Y6997809D01*
X1020993Y7003500D01*
X999007D01*
X977770Y6997809D01*
X958730Y6986817D01*
X947599Y6975686D01*
X427574D01*
X413917Y6972970D01*
X402340Y6965234D01*
X384766Y6947660D01*
X377031Y6936083D01*
X374314Y6922427D01*
Y5626248D01*
X374953Y5623040D01*
X373183Y5621270D01*
X362190Y5602230D01*
X358386Y5588031D01*
X345686Y5589703D01*
Y6977645D01*
X402355Y7034314D01*
X1492426D01*
X1506083Y7037031D01*
X1517660Y7044766D01*
X1543234Y7070340D01*
X1550969Y7081918D01*
X1553686Y7095574D01*
Y7386035D01*
X1556598Y7386815D01*
X1579401Y7399980D01*
X1598020Y7418599D01*
X1611185Y7441402D01*
X1618000Y7466835D01*
Y7493165D01*
X1611185Y7518598D01*
X1598020Y7541401D01*
X1579401Y7560020D01*
X1556598Y7573185D01*
X1531165Y7580000D01*
X1504835D01*
X1479402Y7573185D01*
X1456599Y7560020D01*
X1437980Y7541401D01*
X1424815Y7518598D01*
X1418000Y7493165D01*
Y7466835D01*
X1424815Y7441402D01*
X1437980Y7418599D01*
X1456599Y7399980D01*
X1479402Y7386815D01*
X1482314Y7386035D01*
Y7110355D01*
X1477645Y7105686D01*
X1279703D01*
X1278031Y7118386D01*
X1292230Y7122190D01*
X1311270Y7133183D01*
X1326817Y7148730D01*
X1337810Y7167770D01*
X1343500Y7189007D01*
Y7210993D01*
X1337810Y7232230D01*
X1326817Y7251270D01*
X1311270Y7266817D01*
X1297686Y7274660D01*
Y7385499D01*
X1302598Y7386815D01*
X1325401Y7399980D01*
X1344020Y7418599D01*
X1357185Y7441402D01*
X1364000Y7466835D01*
Y7493165D01*
X1357185Y7518598D01*
X1344020Y7541401D01*
X1325401Y7560020D01*
X1302598Y7573185D01*
X1277165Y7580000D01*
X1250835D01*
X1225402Y7573185D01*
X1202599Y7560020D01*
X1183980Y7541401D01*
X1170815Y7518598D01*
X1164000Y7493165D01*
Y7466835D01*
X1170815Y7441402D01*
X1183980Y7418599D01*
X1202599Y7399980D01*
X1225402Y7386815D01*
X1226314Y7386570D01*
Y7276969D01*
X1208730Y7266817D01*
X1193183Y7251270D01*
X1182190Y7232230D01*
X1176500Y7210993D01*
Y7189007D01*
X1182190Y7167770D01*
X1193183Y7148730D01*
X1208730Y7133183D01*
X1227770Y7122190D01*
X1241969Y7118386D01*
X1240297Y7105686D01*
X1029703D01*
X1028031Y7118386D01*
X1042230Y7122190D01*
X1061270Y7133183D01*
X1076817Y7148730D01*
X1087810Y7167770D01*
X1093500Y7189007D01*
Y7210993D01*
X1087810Y7232230D01*
X1076817Y7251270D01*
X1061270Y7266817D01*
X1045686Y7275815D01*
Y7386035D01*
X1048598Y7386815D01*
X1071401Y7399980D01*
X1090020Y7418599D01*
X1103185Y7441402D01*
X1110000Y7466835D01*
Y7493165D01*
X1103185Y7518598D01*
X1090020Y7541401D01*
X1071401Y7560020D01*
X1048598Y7573185D01*
X1023165Y7580000D01*
X996835D01*
X971402Y7573185D01*
X948599Y7560020D01*
X929980Y7541401D01*
X916815Y7518598D01*
X910000Y7493165D01*
Y7466835D01*
X916815Y7441402D01*
X929980Y7418599D01*
X948599Y7399980D01*
X971402Y7386815D01*
X974314Y7386035D01*
Y7275815D01*
X958730Y7266817D01*
X943183Y7251270D01*
X932190Y7232230D01*
X926500Y7210993D01*
Y7189007D01*
X932190Y7167770D01*
X943183Y7148730D01*
X958730Y7133183D01*
X977770Y7122190D01*
X991969Y7118386D01*
X990297Y7105686D01*
X387574D01*
X373917Y7102969D01*
X362340Y7095234D01*
X321733Y7054627D01*
X310000Y7059487D01*
Y7124314D01*
X722426D01*
X736083Y7127031D01*
X747660Y7134766D01*
X781234Y7168340D01*
X788969Y7179917D01*
X791686Y7193574D01*
Y7386035D01*
X794598Y7386815D01*
X817401Y7399980D01*
X836020Y7418599D01*
X849185Y7441402D01*
X856000Y7466835D01*
Y7493165D01*
X849185Y7518598D01*
X836020Y7541401D01*
X817401Y7560020D01*
X794598Y7573185D01*
X769165Y7580000D01*
X742835D01*
X717402Y7573185D01*
X694599Y7560020D01*
X675980Y7541401D01*
X662815Y7518598D01*
X656000Y7493165D01*
Y7466835D01*
X662815Y7441402D01*
X675980Y7418599D01*
X694599Y7399980D01*
X717402Y7386815D01*
X720314Y7386035D01*
Y7208355D01*
X707645Y7195686D01*
X310000D01*
Y7214314D01*
X482426D01*
X496083Y7217031D01*
X507660Y7224766D01*
X525234Y7242340D01*
X532969Y7253917D01*
X535686Y7267574D01*
Y7385499D01*
X540598Y7386815D01*
X563401Y7399980D01*
X582020Y7418599D01*
X595185Y7441402D01*
X602000Y7466835D01*
Y7493165D01*
X595185Y7518598D01*
X582020Y7541401D01*
X563401Y7560020D01*
X540598Y7573185D01*
X515165Y7580000D01*
X488835D01*
X463402Y7573185D01*
X440599Y7560020D01*
X421980Y7541401D01*
X408815Y7518598D01*
X402000Y7493165D01*
Y7466835D01*
X408815Y7441402D01*
X421980Y7418599D01*
X440599Y7399980D01*
X463402Y7386815D01*
X464314Y7386570D01*
Y7285686D01*
X310000D01*
Y7383201D01*
X311411Y7383481D01*
X331257Y7396743D01*
X344519Y7416589D01*
X349175Y7440000D01*
Y7520000D01*
X344519Y7543411D01*
X331257Y7563257D01*
X311411Y7576519D01*
X310000Y7576799D01*
Y7610000D01*
X4290993D01*
X4299945Y7600992D01*
D02*
G37*
%LPC*%
G36*
X3824000Y7588521D02*
Y7500000D01*
X3912521D01*
X3906503Y7522458D01*
X3892022Y7547541D01*
X3871541Y7568022D01*
X3846458Y7582504D01*
X3824000Y7588521D01*
D02*
G37*
G36*
X3784000D02*
X3761542Y7582504D01*
X3736459Y7568022D01*
X3715978Y7547541D01*
X3701497Y7522458D01*
X3695479Y7500000D01*
X3784000D01*
Y7588521D01*
D02*
G37*
G36*
X4071165Y7580000D02*
X4044835D01*
X4019402Y7573185D01*
X3996599Y7560020D01*
X3977980Y7541401D01*
X3964815Y7518598D01*
X3958000Y7493165D01*
Y7466835D01*
X3964815Y7441402D01*
X3977980Y7418599D01*
X3996599Y7399980D01*
X4019402Y7386815D01*
X4044835Y7380000D01*
X4071165D01*
X4096598Y7386815D01*
X4119401Y7399980D01*
X4138020Y7418599D01*
X4151185Y7441402D01*
X4158000Y7466835D01*
Y7493165D01*
X4151185Y7518598D01*
X4138020Y7541401D01*
X4119401Y7560020D01*
X4096598Y7573185D01*
X4071165Y7580000D01*
D02*
G37*
G36*
X3563165D02*
X3536835D01*
X3511402Y7573185D01*
X3488599Y7560020D01*
X3469980Y7541401D01*
X3456815Y7518598D01*
X3450000Y7493165D01*
Y7466835D01*
X3456815Y7441402D01*
X3469980Y7418599D01*
X3488599Y7399980D01*
X3511402Y7386815D01*
X3536835Y7380000D01*
X3563165D01*
X3588598Y7386815D01*
X3611401Y7399980D01*
X3630020Y7418599D01*
X3643185Y7441402D01*
X3650000Y7466835D01*
Y7493165D01*
X3643185Y7518598D01*
X3630020Y7541401D01*
X3611401Y7560020D01*
X3588598Y7573185D01*
X3563165Y7580000D01*
D02*
G37*
G36*
X2547165D02*
X2520835D01*
X2495402Y7573185D01*
X2472599Y7560020D01*
X2453980Y7541401D01*
X2440815Y7518598D01*
X2434000Y7493165D01*
Y7466835D01*
X2440815Y7441402D01*
X2453980Y7418599D01*
X2472599Y7399980D01*
X2495402Y7386815D01*
X2520835Y7380000D01*
X2547165D01*
X2572598Y7386815D01*
X2595401Y7399980D01*
X2614020Y7418599D01*
X2627185Y7441402D01*
X2634000Y7466835D01*
Y7493165D01*
X2627185Y7518598D01*
X2614020Y7541401D01*
X2595401Y7560020D01*
X2572598Y7573185D01*
X2547165Y7580000D01*
D02*
G37*
G36*
X2039165D02*
X2012835D01*
X1987402Y7573185D01*
X1964599Y7560020D01*
X1945980Y7541401D01*
X1932815Y7518598D01*
X1926000Y7493165D01*
Y7466835D01*
X1932815Y7441402D01*
X1945980Y7418599D01*
X1964599Y7399980D01*
X1987402Y7386815D01*
X2012835Y7380000D01*
X2039165D01*
X2064598Y7386815D01*
X2087401Y7399980D01*
X2106020Y7418599D01*
X2119185Y7441402D01*
X2126000Y7466835D01*
Y7493165D01*
X2119185Y7518598D01*
X2106020Y7541401D01*
X2087401Y7560020D01*
X2064598Y7573185D01*
X2039165Y7580000D01*
D02*
G37*
G36*
X3912521Y7460000D02*
X3824000D01*
Y7371479D01*
X3846458Y7377497D01*
X3871541Y7391978D01*
X3892022Y7412459D01*
X3906503Y7437542D01*
X3912521Y7460000D01*
D02*
G37*
G36*
X3784000D02*
X3695479D01*
X3701497Y7437542D01*
X3715978Y7412459D01*
X3736459Y7391978D01*
X3761542Y7377497D01*
X3784000Y7371479D01*
Y7460000D01*
D02*
G37*
G36*
X4160000Y6992521D02*
Y6904001D01*
X4248521D01*
X4242504Y6926458D01*
X4228022Y6951541D01*
X4207541Y6972022D01*
X4182458Y6986503D01*
X4160000Y6992521D01*
D02*
G37*
G36*
X4120000Y6992521D02*
X4097542Y6986503D01*
X4072459Y6972022D01*
X4051978Y6951541D01*
X4037497Y6926458D01*
X4031479Y6904001D01*
X4120000D01*
Y6992521D01*
D02*
G37*
G36*
Y6864002D02*
X4031479D01*
X4037497Y6841542D01*
X4051978Y6816459D01*
X4072459Y6795978D01*
X4097542Y6781496D01*
X4120000Y6775479D01*
Y6864002D01*
D02*
G37*
G36*
X4248522D02*
X4160000D01*
Y6775479D01*
X4182458Y6781496D01*
X4207541Y6795978D01*
X4228022Y6816459D01*
X4242504Y6841542D01*
X4248522Y6864002D01*
D02*
G37*
G36*
X3309165Y7580000D02*
X3282835D01*
X3257402Y7573185D01*
X3234599Y7560020D01*
X3215980Y7541401D01*
X3202815Y7518598D01*
X3196000Y7493165D01*
Y7466835D01*
X3202815Y7441402D01*
X3204323Y7438790D01*
X3154766Y7389234D01*
X3147031Y7377656D01*
X3144314Y7364000D01*
Y6727574D01*
X3147031Y6713917D01*
X3154766Y6702340D01*
X3172340Y6684766D01*
X3181889Y6678386D01*
X3181124Y6669377D01*
X3179777Y6665686D01*
X3075686D01*
Y7385499D01*
X3080598Y7386815D01*
X3103401Y7399980D01*
X3122020Y7418599D01*
X3135185Y7441402D01*
X3142000Y7466835D01*
Y7493165D01*
X3135185Y7518598D01*
X3122020Y7541401D01*
X3103401Y7560020D01*
X3080598Y7573185D01*
X3055165Y7580000D01*
X3028835D01*
X3003402Y7573185D01*
X2980599Y7560020D01*
X2961980Y7541401D01*
X2948815Y7518598D01*
X2942000Y7493165D01*
Y7466835D01*
X2948815Y7441402D01*
X2961980Y7418599D01*
X2980599Y7399980D01*
X3003402Y7386815D01*
X3004314Y7386570D01*
Y6647574D01*
X3007031Y6633917D01*
X3014766Y6622340D01*
X3032340Y6604766D01*
X3043917Y6597031D01*
X3057574Y6594314D01*
X3634314D01*
Y3945686D01*
X3317574D01*
X3303917Y3942969D01*
X3292340Y3935234D01*
X3274766Y3917660D01*
X3267031Y3906083D01*
X3264314Y3892426D01*
Y3775814D01*
X3248730Y3766817D01*
X3233183Y3751270D01*
X3222190Y3732230D01*
X3216500Y3710993D01*
Y3689007D01*
X3222190Y3667770D01*
X3233183Y3648730D01*
X3248730Y3633183D01*
X3267770Y3622190D01*
X3289007Y3616500D01*
X3310993D01*
X3332230Y3622190D01*
X3351270Y3633183D01*
X3366817Y3648730D01*
X3377810Y3667770D01*
X3383500Y3689007D01*
Y3710993D01*
X3377810Y3732230D01*
X3366817Y3751270D01*
X3351270Y3766817D01*
X3335686Y3775814D01*
Y3874314D01*
X3652426D01*
X3666083Y3877031D01*
X3677660Y3884766D01*
X3695234Y3902340D01*
X3702969Y3913917D01*
X3705686Y3927574D01*
Y6612426D01*
X3702969Y6626083D01*
X3695234Y6637660D01*
X3677660Y6655234D01*
X3668111Y6661614D01*
X3668876Y6670623D01*
X3670223Y6674314D01*
X3914314D01*
Y4795814D01*
X3898730Y4786817D01*
X3883183Y4771270D01*
X3872190Y4752230D01*
X3866500Y4730993D01*
Y4709007D01*
X3872190Y4687770D01*
X3883183Y4668730D01*
X3898730Y4653183D01*
X3917770Y4642190D01*
X3939007Y4636500D01*
X3960993D01*
X3982230Y4642190D01*
X4001270Y4653183D01*
X4016817Y4668730D01*
X4027810Y4687770D01*
X4033500Y4709007D01*
Y4730993D01*
X4027810Y4752230D01*
X4016817Y4771270D01*
X4001270Y4786817D01*
X3985686Y4795814D01*
Y6692426D01*
X3982969Y6706083D01*
X3975234Y6717660D01*
X3957660Y6735234D01*
X3946083Y6742969D01*
X3932426Y6745686D01*
X3215686D01*
Y7349218D01*
X3254790Y7388323D01*
X3257402Y7386815D01*
X3282835Y7380000D01*
X3309165D01*
X3334598Y7386815D01*
X3357401Y7399980D01*
X3376020Y7418599D01*
X3389185Y7441402D01*
X3396000Y7466835D01*
Y7493165D01*
X3389185Y7518598D01*
X3376020Y7541401D01*
X3357401Y7560020D01*
X3334598Y7573185D01*
X3309165Y7580000D01*
D02*
G37*
G36*
X4180000Y6731175D02*
X4100000D01*
X4076589Y6726519D01*
X4056743Y6713257D01*
X4043481Y6693411D01*
X4038825Y6670000D01*
Y6590000D01*
X4043481Y6566589D01*
X4056743Y6546743D01*
X4076589Y6533481D01*
X4100000Y6528825D01*
X4180000D01*
X4203411Y6533481D01*
X4223257Y6546743D01*
X4236519Y6566589D01*
X4241175Y6590000D01*
Y6670000D01*
X4236519Y6693411D01*
X4223257Y6713257D01*
X4203411Y6726519D01*
X4180000Y6731175D01*
D02*
G37*
G36*
X695000Y6660383D02*
X535000D01*
X527197Y6658831D01*
X520581Y6654411D01*
X516161Y6647795D01*
X514608Y6639992D01*
Y6474992D01*
X516161Y6467188D01*
X520581Y6460572D01*
X527197Y6456152D01*
X535000Y6454600D01*
X695000D01*
X702804Y6456152D01*
X709419Y6460572D01*
X713840Y6467188D01*
X715392Y6474992D01*
Y6639992D01*
X713840Y6647795D01*
X709419Y6654411D01*
X702804Y6658831D01*
X695000Y6660383D01*
D02*
G37*
G36*
X2000993Y6363500D02*
X1979007D01*
X1957770Y6357809D01*
X1938730Y6346817D01*
X1923183Y6331270D01*
X1919959Y6325686D01*
X1507574D01*
X1493918Y6322969D01*
X1482340Y6315234D01*
X1464766Y6297660D01*
X1457031Y6286083D01*
X1454314Y6272426D01*
Y4359032D01*
X1429016Y4333734D01*
X1421280Y4322156D01*
X1418564Y4308500D01*
Y4280702D01*
X1407770Y4277810D01*
X1388730Y4266817D01*
X1373183Y4251270D01*
X1362190Y4232230D01*
X1356500Y4210993D01*
Y4189007D01*
X1362190Y4167770D01*
X1373183Y4148730D01*
X1388730Y4133183D01*
X1407770Y4122190D01*
X1429007Y4116500D01*
X1450993D01*
X1472230Y4122190D01*
X1491270Y4133183D01*
X1506817Y4148730D01*
X1517810Y4167770D01*
X1523500Y4189007D01*
Y4210993D01*
X1517810Y4232230D01*
X1506817Y4251270D01*
X1491270Y4266817D01*
X1489935Y4267587D01*
Y4293718D01*
X1515234Y4319017D01*
X1522969Y4330594D01*
X1525686Y4344250D01*
Y6254314D01*
X1910437D01*
X1912190Y6247770D01*
X1923183Y6228730D01*
X1938730Y6213183D01*
X1957770Y6202190D01*
X1979007Y6196500D01*
X2000993D01*
X2022230Y6202190D01*
X2041270Y6213183D01*
X2056817Y6228730D01*
X2067810Y6247770D01*
X2073500Y6269007D01*
Y6290993D01*
X2067810Y6312230D01*
X2056817Y6331270D01*
X2041270Y6346817D01*
X2022230Y6357809D01*
X2000993Y6363500D01*
D02*
G37*
G36*
X1360993Y6253500D02*
X1339007D01*
X1317770Y6247810D01*
X1298730Y6236817D01*
X1283183Y6221270D01*
X1274186Y6205686D01*
X1137574D01*
X1123917Y6202969D01*
X1112340Y6195234D01*
X1094766Y6177660D01*
X1087031Y6166083D01*
X1084314Y6152426D01*
Y6005815D01*
X1068730Y5996817D01*
X1053183Y5981270D01*
X1042190Y5962230D01*
X1036500Y5940993D01*
Y5919007D01*
X1042190Y5897770D01*
X1053183Y5878730D01*
X1068730Y5863183D01*
X1087770Y5852190D01*
X1109007Y5846500D01*
X1130993D01*
X1152230Y5852190D01*
X1171270Y5863183D01*
X1186817Y5878730D01*
X1197810Y5897770D01*
X1203500Y5919007D01*
Y5940993D01*
X1197810Y5962230D01*
X1186817Y5981270D01*
X1171270Y5996817D01*
X1155686Y6005815D01*
Y6134314D01*
X1274186D01*
X1283183Y6118730D01*
X1298730Y6103183D01*
X1317770Y6092191D01*
X1339007Y6086500D01*
X1360993D01*
X1382230Y6092191D01*
X1401270Y6103183D01*
X1416817Y6118730D01*
X1427810Y6137770D01*
X1433500Y6159007D01*
Y6180993D01*
X1427810Y6202230D01*
X1416817Y6221270D01*
X1401270Y6236817D01*
X1382230Y6247810D01*
X1360993Y6253500D01*
D02*
G37*
G36*
X1785165Y7580000D02*
X1758835D01*
X1733402Y7573185D01*
X1710599Y7560020D01*
X1691980Y7541401D01*
X1678815Y7518598D01*
X1672000Y7493165D01*
Y7466835D01*
X1678815Y7441402D01*
X1691980Y7418599D01*
X1710599Y7399980D01*
X1733402Y7386815D01*
X1736314Y7386035D01*
Y6985686D01*
X1207574D01*
X1193917Y6982969D01*
X1182340Y6975234D01*
X1164766Y6957660D01*
X1157031Y6946083D01*
X1154314Y6932426D01*
Y6435686D01*
X617574D01*
X603917Y6432969D01*
X592340Y6425234D01*
X554766Y6387660D01*
X547031Y6376083D01*
X544314Y6362426D01*
Y5815814D01*
X528730Y5806817D01*
X513183Y5791270D01*
X502191Y5772230D01*
X496500Y5750993D01*
Y5729007D01*
X502191Y5707770D01*
X513183Y5688730D01*
X528730Y5673183D01*
X547770Y5662190D01*
X569007Y5656500D01*
X590993D01*
X612230Y5662190D01*
X631270Y5673183D01*
X646817Y5688730D01*
X657810Y5707770D01*
X663500Y5729007D01*
Y5750993D01*
X657810Y5772230D01*
X646817Y5791270D01*
X631270Y5806817D01*
X615686Y5815814D01*
Y6347645D01*
X632355Y6364314D01*
X1172426D01*
X1186082Y6367031D01*
X1197660Y6374766D01*
X1215234Y6392340D01*
X1222969Y6403917D01*
X1225686Y6417574D01*
Y6914314D01*
X1754426D01*
X1768083Y6917031D01*
X1779660Y6924766D01*
X1797234Y6942340D01*
X1804969Y6953918D01*
X1807686Y6967574D01*
Y7386035D01*
X1810598Y7386815D01*
X1833401Y7399980D01*
X1852020Y7418599D01*
X1865185Y7441402D01*
X1872000Y7466835D01*
Y7493165D01*
X1865185Y7518598D01*
X1852020Y7541401D01*
X1833401Y7560020D01*
X1810598Y7573185D01*
X1785165Y7580000D01*
D02*
G37*
G36*
X2293165D02*
X2266835D01*
X2241402Y7573185D01*
X2218599Y7560020D01*
X2199980Y7541401D01*
X2186815Y7518598D01*
X2180000Y7493165D01*
Y7466835D01*
X2186815Y7441402D01*
X2199980Y7418599D01*
X2218599Y7399980D01*
X2241402Y7386815D01*
X2244314Y7386035D01*
Y5825686D01*
X1667574D01*
X1653917Y5822969D01*
X1642340Y5815234D01*
X1624766Y5797660D01*
X1617031Y5786083D01*
X1614314Y5772426D01*
Y5375814D01*
X1598730Y5366817D01*
X1583183Y5351270D01*
X1572190Y5332230D01*
X1566500Y5310993D01*
Y5289007D01*
X1572190Y5267770D01*
X1583183Y5248730D01*
X1598730Y5233183D01*
X1617770Y5222190D01*
X1639007Y5216500D01*
X1660993D01*
X1682230Y5222190D01*
X1701270Y5233183D01*
X1716817Y5248730D01*
X1726680Y5265814D01*
X1761134D01*
X1765994Y5254081D01*
X1763183Y5251270D01*
X1752190Y5232230D01*
X1746500Y5210993D01*
Y5189007D01*
X1752190Y5167770D01*
X1763183Y5148730D01*
X1778730Y5133183D01*
X1797770Y5122190D01*
X1819007Y5116500D01*
X1840993D01*
X1862230Y5122190D01*
X1881270Y5133183D01*
X1896817Y5148730D01*
X1905814Y5164314D01*
X3144185D01*
X3153183Y5148730D01*
X3168730Y5133183D01*
X3168888Y5133092D01*
X3165485Y5120392D01*
X2000000D01*
X1992196Y5118840D01*
X1985580Y5114419D01*
X1981160Y5107804D01*
X1979608Y5100000D01*
Y4200000D01*
X1981160Y4192196D01*
X1985580Y4185581D01*
X1992196Y4181160D01*
X2000000Y4179608D01*
X3400000D01*
X3407804Y4181160D01*
X3414419Y4185581D01*
X3418840Y4192196D01*
X3420392Y4200000D01*
Y5100000D01*
X3418840Y5107804D01*
X3414419Y5114419D01*
X3407804Y5118840D01*
X3400000Y5120392D01*
X3274515D01*
X3271112Y5133092D01*
X3271270Y5133183D01*
X3286817Y5148730D01*
X3297810Y5167770D01*
X3303500Y5189007D01*
Y5210993D01*
X3297810Y5232230D01*
X3286817Y5251270D01*
X3284006Y5254081D01*
X3288866Y5265814D01*
X3339093D01*
X3343183Y5258730D01*
X3358730Y5243183D01*
X3377770Y5232190D01*
X3399007Y5226500D01*
X3420993D01*
X3442230Y5232190D01*
X3461270Y5243183D01*
X3476817Y5258730D01*
X3487810Y5277770D01*
X3493500Y5299007D01*
Y5320993D01*
X3487810Y5342230D01*
X3476817Y5361270D01*
X3461270Y5376817D01*
X3442230Y5387810D01*
X3420993Y5393500D01*
X3399007D01*
X3377770Y5387810D01*
X3358730Y5376817D01*
X3343183Y5361270D01*
X3332190Y5342230D01*
X3330839Y5337186D01*
X3293233D01*
X3287973Y5349886D01*
X3296817Y5358730D01*
X3307809Y5377770D01*
X3313500Y5399007D01*
Y5420993D01*
X3307809Y5442230D01*
X3296817Y5461270D01*
X3295506Y5462581D01*
X3300366Y5474314D01*
X3334186D01*
X3343183Y5458730D01*
X3358730Y5443183D01*
X3377770Y5432190D01*
X3399007Y5426500D01*
X3420993D01*
X3442230Y5432190D01*
X3461270Y5443183D01*
X3476817Y5458730D01*
X3487810Y5477770D01*
X3493500Y5499007D01*
Y5520993D01*
X3487810Y5542230D01*
X3476817Y5561270D01*
X3461270Y5576817D01*
X3442230Y5587809D01*
X3420993Y5593500D01*
X3399007D01*
X3377770Y5587809D01*
X3358730Y5576817D01*
X3343183Y5561270D01*
X3334186Y5545686D01*
X2095814D01*
X2086817Y5561270D01*
X2071270Y5576817D01*
X2052230Y5587809D01*
X2030993Y5593500D01*
X2009007D01*
X1987770Y5587809D01*
X1968730Y5576817D01*
X1953183Y5561270D01*
X1942190Y5542230D01*
X1936500Y5520993D01*
Y5499007D01*
X1942190Y5477770D01*
X1953183Y5458730D01*
X1958527Y5453386D01*
X1953267Y5440686D01*
X1912928D01*
X1906817Y5451270D01*
X1891270Y5466817D01*
X1872230Y5477810D01*
X1850993Y5483500D01*
X1829007D01*
X1807770Y5477810D01*
X1788730Y5466817D01*
X1773183Y5451270D01*
X1762190Y5432230D01*
X1756500Y5410993D01*
Y5389007D01*
X1762190Y5367770D01*
X1772516Y5349886D01*
X1770112Y5341315D01*
X1768401Y5337186D01*
X1724948D01*
X1716817Y5351270D01*
X1701270Y5366817D01*
X1685686Y5375814D01*
Y5754314D01*
X2262426D01*
X2276083Y5757031D01*
X2287660Y5764766D01*
X2305234Y5782340D01*
X2312969Y5793918D01*
X2315686Y5807574D01*
Y7386035D01*
X2318598Y7386815D01*
X2341401Y7399980D01*
X2360020Y7418599D01*
X2373185Y7441402D01*
X2380000Y7466835D01*
Y7493165D01*
X2373185Y7518598D01*
X2360020Y7541401D01*
X2341401Y7560020D01*
X2318598Y7573185D01*
X2293165Y7580000D01*
D02*
G37*
G36*
X695000Y4505384D02*
X535000D01*
X527197Y4503832D01*
X520581Y4499411D01*
X516161Y4492796D01*
X514609Y4484992D01*
Y4319992D01*
X516161Y4312188D01*
X520581Y4305573D01*
X527197Y4301152D01*
X535000Y4299600D01*
X695000D01*
X702804Y4301152D01*
X709420Y4305573D01*
X713840Y4312188D01*
X715392Y4319992D01*
Y4484992D01*
X713840Y4492796D01*
X709420Y4499411D01*
X702804Y4503832D01*
X695000Y4505384D01*
D02*
G37*
G36*
X2801165Y7580000D02*
X2774835D01*
X2749402Y7573185D01*
X2726599Y7560020D01*
X2707980Y7541401D01*
X2694815Y7518598D01*
X2688000Y7493165D01*
Y7466835D01*
X2694815Y7441402D01*
X2707980Y7418599D01*
X2726599Y7399980D01*
X2749402Y7386815D01*
X2754314Y7385499D01*
Y6527574D01*
X2757031Y6513917D01*
X2764766Y6502340D01*
X2782340Y6484766D01*
X2793917Y6477031D01*
X2807574Y6474314D01*
X3524314D01*
Y4055686D01*
X3157574D01*
X3143918Y4052969D01*
X3132340Y4045234D01*
X3114766Y4027660D01*
X3107031Y4016083D01*
X3104314Y4002426D01*
Y3485814D01*
X3088730Y3476817D01*
X3073183Y3461270D01*
X3062190Y3442230D01*
X3056500Y3420993D01*
Y3399007D01*
X3062190Y3377770D01*
X3073183Y3358730D01*
X3088730Y3343183D01*
X3107770Y3332190D01*
X3129007Y3326500D01*
X3150993D01*
X3172230Y3332190D01*
X3191270Y3343183D01*
X3206817Y3358730D01*
X3217810Y3377770D01*
X3223500Y3399007D01*
Y3420993D01*
X3217810Y3442230D01*
X3206817Y3461270D01*
X3191270Y3476817D01*
X3175686Y3485814D01*
Y3984314D01*
X3542426D01*
X3556083Y3987031D01*
X3567660Y3994766D01*
X3585234Y4012340D01*
X3592969Y4023918D01*
X3595686Y4037574D01*
Y6492426D01*
X3592969Y6506082D01*
X3585234Y6517660D01*
X3567660Y6535234D01*
X3556083Y6542969D01*
X3542426Y6545686D01*
X2825686D01*
Y7386570D01*
X2826598Y7386815D01*
X2849401Y7399980D01*
X2868020Y7418599D01*
X2881185Y7441402D01*
X2888000Y7466835D01*
Y7493165D01*
X2881185Y7518598D01*
X2868020Y7541401D01*
X2849401Y7560020D01*
X2826598Y7573185D01*
X2801165Y7580000D01*
D02*
G37*
G36*
X3970993Y3143500D02*
X3949007D01*
X3927770Y3137810D01*
X3908730Y3126817D01*
X3893183Y3111270D01*
X3882190Y3092230D01*
X3876500Y3070993D01*
Y3049007D01*
X3882190Y3027770D01*
X3893183Y3008730D01*
X3908730Y2993183D01*
X3924314Y2984186D01*
Y2505814D01*
X3908730Y2496817D01*
X3893183Y2481270D01*
X3882190Y2462230D01*
X3876500Y2440993D01*
Y2419007D01*
X3882190Y2397770D01*
X3893183Y2378730D01*
X3908730Y2363183D01*
X3927770Y2352190D01*
X3949007Y2346500D01*
X3970993D01*
X3992230Y2352190D01*
X4011270Y2363183D01*
X4026817Y2378730D01*
X4037810Y2397770D01*
X4043500Y2419007D01*
Y2440993D01*
X4037810Y2462230D01*
X4026817Y2481270D01*
X4011270Y2496817D01*
X3995686Y2505814D01*
Y2984186D01*
X4011270Y2993183D01*
X4026817Y3008730D01*
X4037810Y3027770D01*
X4043500Y3049007D01*
Y3070993D01*
X4037810Y3092230D01*
X4026817Y3111270D01*
X4011270Y3126817D01*
X3992230Y3137810D01*
X3970993Y3143500D01*
D02*
G37*
%LPD*%
D17*
X3180000Y6727574D02*
X3197574Y6710000D01*
X3180000Y6727574D02*
Y7364000D01*
X3296000Y7480000D01*
X3197574Y6710000D02*
X3932426D01*
X440000Y5570000D02*
Y5596248D01*
X410000Y6922427D02*
X427574Y6940000D01*
X963751D02*
X983752Y6920000D01*
X410000Y5626248D02*
X440000Y5596248D01*
X410000Y5626248D02*
Y6922427D01*
X427574Y6940000D02*
X963751D01*
X983752Y6920000D02*
X1010000D01*
X617574Y6400000D02*
X1172426D01*
X580000Y6362426D02*
X617574Y6400000D01*
X1190000Y6417574D02*
Y6932426D01*
X1172426Y6400000D02*
X1190000Y6417574D01*
X580000Y5740000D02*
Y6362426D01*
X310000Y5450000D02*
Y6992426D01*
X387574Y7070000D01*
X190000Y7110000D02*
X240000Y7160000D01*
X190000Y5260000D02*
Y7110000D01*
X90000Y5120000D02*
Y7232426D01*
X107574Y7250000D01*
X1490000Y6272426D02*
X1507574Y6290000D01*
X1454250Y4308500D02*
X1490000Y4344250D01*
X1507574Y6290000D02*
X1980000D01*
X1490000Y4344250D02*
Y6272426D01*
X1454250Y4214250D02*
Y4308500D01*
X1440000Y4200000D02*
X1454250Y4214250D01*
X3960000Y2430000D02*
Y3060000D01*
X1980000Y6290000D02*
X1990000Y6280000D01*
X3408500Y5301500D02*
X3410000Y5300000D01*
X1650000Y5772426D02*
X1667574Y5790000D01*
X2262426D01*
X1845000Y5405000D02*
X3225000D01*
X1650000Y5300000D02*
Y5772426D01*
X1830000Y5200000D02*
X3220000D01*
X1650000Y5300000D02*
X1651500Y5301500D01*
X2020000Y5510000D02*
X3410000D01*
X1651500Y5301500D02*
X3408500D01*
X1840000Y5400000D02*
X1845000Y5405000D01*
X3225000D02*
X3230000Y5410000D01*
X3560000Y4037574D02*
Y6492426D01*
X3542426Y6510000D02*
X3560000Y6492426D01*
X3542426Y4020000D02*
X3560000Y4037574D01*
X3652426Y6630000D02*
X3670000Y6612426D01*
X3652426Y3910000D02*
X3670000Y3927574D01*
Y6612426D01*
X2807574Y6510000D02*
X3542426D01*
X3157574Y4020000D02*
X3542426D01*
X3057574Y6630000D02*
X3652426D01*
X3317574Y3910000D02*
X3652426D01*
X2262426Y5790000D02*
X2280000Y5807574D01*
Y7470000D01*
X1350000Y6170000D02*
X1360000D01*
X1137574D02*
X1350000D01*
X1120000Y5930000D02*
Y6152426D01*
X1137574Y6170000D01*
X1260000Y7480000D02*
X1262000Y7478000D01*
Y7202000D02*
Y7478000D01*
X1260000Y7200000D02*
X1262000Y7202000D01*
X1207574Y6950000D02*
X1754426D01*
X1772000Y6967574D02*
Y7480000D01*
X1754426Y6950000D02*
X1772000Y6967574D01*
X1190000Y6932426D02*
X1207574Y6950000D01*
X1010000Y7200000D02*
Y7480000D01*
X1518000Y7468000D02*
X1520000Y7470000D01*
X1492426Y7070000D02*
X1518000Y7095574D01*
X387574Y7070000D02*
X1492426D01*
X1518000Y7095574D02*
Y7468000D01*
X756000Y7466000D02*
X760000Y7470000D01*
X756000Y7193574D02*
Y7466000D01*
X240000Y7160000D02*
X722426D01*
X756000Y7193574D01*
X500000Y7267574D02*
Y7470000D01*
X482426Y7250000D02*
X500000Y7267574D01*
X107574Y7250000D02*
X482426D01*
X3040000Y6647574D02*
Y7480000D01*
Y6647574D02*
X3057574Y6630000D01*
X2790000Y6527574D02*
Y7470000D01*
Y6527574D02*
X2807574Y6510000D01*
X3140000Y4002426D02*
X3157574Y4020000D01*
X3140000Y3410000D02*
Y4002426D01*
X3300000Y3700000D02*
Y3892426D01*
X3317574Y3910000D01*
X3932426Y6710000D02*
X3950000Y6692426D01*
Y4720000D02*
Y6692426D01*
X1170000Y1150000D02*
X1440000D01*
X1010000Y390000D02*
X1440000D01*
X1108500Y900000D02*
X1440000D01*
X4102000Y528000D02*
X4110000Y520000D01*
X175000Y528000D02*
X4102000D01*
X170000Y523000D02*
X175000Y528000D01*
D18*
X4140000Y6630000D02*
D03*
X170000Y777000D02*
D03*
X4110000Y787000D02*
D03*
D19*
X4140000Y6884000D02*
D03*
X170000Y523000D02*
D03*
X4110000Y533000D02*
D03*
X3550000Y7480000D02*
D03*
X3296000D02*
D03*
X2280000D02*
D03*
X1518000D02*
D03*
X1010000D02*
D03*
X502000D02*
D03*
X756000D02*
D03*
X1264000D02*
D03*
X1772000D02*
D03*
X2026000D02*
D03*
X2534000D02*
D03*
X2788000D02*
D03*
X3042000D02*
D03*
X3804000D02*
D03*
X4058000D02*
D03*
D20*
X248000D02*
D03*
D21*
X580000Y5740000D02*
D03*
X440000Y5570000D02*
D03*
X310000Y5450000D02*
D03*
X190000Y5260000D02*
D03*
X90000Y5120000D02*
D03*
X1440000Y4200000D02*
D03*
X3960000Y2430000D02*
D03*
Y3060000D02*
D03*
X1990000Y6280000D02*
D03*
X1650000Y5300000D02*
D03*
X2020000Y5510000D02*
D03*
X1830000Y5200000D02*
D03*
X1840000Y5400000D02*
D03*
X3410000Y5510000D02*
D03*
Y5310000D02*
D03*
X3220000Y5200000D02*
D03*
X3230000Y5410000D02*
D03*
X1350000Y6170000D02*
D03*
X1120000Y5930000D02*
D03*
X1260000Y7200000D02*
D03*
X1010000Y6920000D02*
D03*
Y7200000D02*
D03*
X3140000Y3410000D02*
D03*
X3300000Y3700000D02*
D03*
X3950000Y4720000D02*
D03*
X1440000Y1150000D02*
D03*
X1170000D02*
D03*
X1108500Y900000D02*
D03*
X1010000Y390000D02*
D03*
X1440000D02*
D03*
Y900000D02*
D03*
X850000Y4390000D02*
D03*
X4110000Y1140000D02*
D03*
M02*
